<svg width="288" height="62" viewBox="0 0 288 62" fill="none" xmlns="http://www.w3.org/2000/svg">
<path d="M52.9343 29.8055C52.875 22.7276 58.7387 19.2775 59.0116 19.1234C55.6881 14.2862 50.5367 13.6223 48.7206 13.5749C44.3882 13.1244 40.1981 16.1595 37.9904 16.1595C35.747 16.1595 32.3521 13.6223 28.6845 13.6935C23.9721 13.7645 19.5685 16.4915 17.1589 20.7121C12.1736 29.3313 15.8889 41.9932 20.6724 48.9645C23.0581 52.3789 25.8476 56.1847 29.5035 56.0542C33.0762 55.9119 34.4176 53.7779 38.7263 53.7779C42.9994 53.7779 44.2575 56.0542 47.9847 55.9712C51.8186 55.9119 54.24 52.5449 56.5427 49.1067C59.3084 45.1944 60.4123 41.3412 60.4598 41.1515C60.3649 41.0922 53.0056 38.2824 52.9343 29.8055ZM45.8956 8.98667C47.8185 6.57996 49.136 3.31964 48.768 0C45.9906 0.118495 42.5008 1.92058 40.5067 4.26811C38.7382 6.34285 37.1475 9.73356 37.5631 12.9228C40.6729 13.148 43.8896 11.346 45.8956 8.98667Z" fill="#EEF3F7"/>
<path d="M104.403 18.1533V3.40432H110.1C111.619 3.40432 112.917 3.66949 113.992 4.19982C115.067 4.71582 115.891 5.51849 116.464 6.60782C117.052 7.68282 117.346 9.07315 117.346 10.7788C117.346 12.4702 117.052 13.8605 116.464 14.9498C115.891 16.0392 115.067 16.849 113.992 17.3793C112.917 17.8953 111.619 18.1533 110.1 18.1533H104.403ZM106.811 16.0893H110.079C110.838 16.0893 111.512 15.989 112.1 15.7883C112.702 15.5877 113.203 15.2795 113.605 14.8638C114.02 14.4482 114.328 13.925 114.529 13.2943C114.744 12.6493 114.852 11.8897 114.852 11.0153V10.5638C114.852 9.67515 114.744 8.91549 114.529 8.28482C114.328 7.63982 114.02 7.10949 113.605 6.69382C113.203 6.27815 112.702 5.96999 112.1 5.76932C111.512 5.56865 110.838 5.46832 110.079 5.46832H106.811V16.0893ZM124.644 18.4113C123.468 18.4113 122.472 18.2035 121.655 17.7878C120.853 17.3578 120.243 16.7057 119.828 15.8313C119.426 14.957 119.226 13.8462 119.226 12.4988C119.226 11.1372 119.426 10.0263 119.828 9.16632C120.243 8.29199 120.853 7.64699 121.655 7.23132C122.472 6.80132 123.468 6.58632 124.644 6.58632C125.848 6.58632 126.851 6.80132 127.654 7.23132C128.456 7.64699 129.058 8.29199 129.46 9.16632C129.875 10.0263 130.083 11.1372 130.083 12.4988C130.083 13.8462 129.875 14.957 129.46 15.8313C129.058 16.7057 128.456 17.3578 127.654 17.7878C126.851 18.2035 125.848 18.4113 124.644 18.4113ZM124.644 16.5623C125.36 16.5623 125.948 16.4262 126.407 16.1538C126.865 15.8672 127.202 15.4372 127.417 14.8638C127.647 14.2905 127.761 13.5667 127.761 12.6923V12.3053C127.761 11.431 127.647 10.7072 127.417 10.1338C127.202 9.56049 126.865 9.13765 126.407 8.86532C125.948 8.57865 125.36 8.43532 124.644 8.43532C123.941 8.43532 123.361 8.57865 122.902 8.86532C122.444 9.13765 122.1 9.56049 121.87 10.1338C121.655 10.7072 121.548 11.431 121.548 12.3053V12.6923C121.548 13.5667 121.655 14.2905 121.87 14.8638C122.1 15.4372 122.444 15.8672 122.902 16.1538C123.361 16.4262 123.941 16.5623 124.644 16.5623ZM134.427 18.1533L131.03 6.84432H133.352L135.008 13.0363C135.094 13.3373 135.166 13.6527 135.223 13.9823C135.295 14.312 135.359 14.6058 135.416 14.8638C135.474 15.1218 135.517 15.301 135.545 15.4013H135.674C135.732 15.1433 135.796 14.8495 135.868 14.5198C135.94 14.1902 136.004 13.8892 136.061 13.6168C136.119 13.3302 136.162 13.1152 136.19 12.9718L137.695 6.84432H140.103L141.651 12.9933C141.709 13.2227 141.766 13.4878 141.823 13.7888C141.895 14.0755 141.96 14.3622 142.017 14.6488C142.089 14.9355 142.139 15.1863 142.167 15.4013H142.296C142.339 15.2007 142.39 14.9642 142.447 14.6918C142.519 14.4052 142.59 14.1185 142.662 13.8318C142.734 13.5452 142.798 13.28 142.855 13.0363L144.489 6.84432H146.618L143.242 18.1533H140.92L139.544 12.5203C139.487 12.248 139.415 11.9327 139.329 11.5743C139.243 11.216 139.165 10.8577 139.093 10.4993C139.021 10.141 138.964 9.82565 138.921 9.55332H138.792C138.763 9.71099 138.72 9.94032 138.663 10.2413C138.62 10.5423 138.555 10.8863 138.469 11.2733C138.383 11.6603 138.283 12.076 138.168 12.5203L136.749 18.1533H134.427ZM148.235 18.1533V6.84432H150.084L150.278 8.45682H150.428C150.701 8.04115 151.023 7.69715 151.396 7.42482C151.769 7.15249 152.177 6.94465 152.621 6.80132C153.08 6.65799 153.582 6.58632 154.126 6.58632C154.843 6.58632 155.474 6.71532 156.018 6.97332C156.563 7.21699 156.986 7.61832 157.287 8.17732C157.602 8.73632 157.76 9.48882 157.76 10.4348V18.1533H155.524V10.7788C155.524 10.3488 155.467 9.99049 155.352 9.70382C155.252 9.41715 155.101 9.18782 154.9 9.01582C154.7 8.84382 154.463 8.72199 154.191 8.65032C153.919 8.57865 153.618 8.54282 153.288 8.54282C152.772 8.54282 152.299 8.67182 151.869 8.92982C151.453 9.17349 151.116 9.51749 150.858 9.96182C150.6 10.4062 150.471 10.9293 150.471 11.5313V18.1533H148.235ZM160.56 18.1533V2.60882H162.796V18.1533H160.56ZM170.499 18.4113C169.324 18.4113 168.328 18.2035 167.511 17.7878C166.708 17.3578 166.099 16.7057 165.683 15.8313C165.282 14.957 165.081 13.8462 165.081 12.4988C165.081 11.1372 165.282 10.0263 165.683 9.16632C166.099 8.29199 166.708 7.64699 167.511 7.23132C168.328 6.80132 169.324 6.58632 170.499 6.58632C171.703 6.58632 172.707 6.80132 173.509 7.23132C174.312 7.64699 174.914 8.29199 175.315 9.16632C175.731 10.0263 175.939 11.1372 175.939 12.4988C175.939 13.8462 175.731 14.957 175.315 15.8313C174.914 16.7057 174.312 17.3578 173.509 17.7878C172.707 18.2035 171.703 18.4113 170.499 18.4113ZM170.499 16.5623C171.216 16.5623 171.804 16.4262 172.262 16.1538C172.721 15.8672 173.058 15.4372 173.273 14.8638C173.502 14.2905 173.617 13.5667 173.617 12.6923V12.3053C173.617 11.431 173.502 10.7072 173.273 10.1338C173.058 9.56049 172.721 9.13765 172.262 8.86532C171.804 8.57865 171.216 8.43532 170.499 8.43532C169.797 8.43532 169.216 8.57865 168.758 8.86532C168.299 9.13765 167.955 9.56049 167.726 10.1338C167.511 10.7072 167.403 11.431 167.403 12.3053V12.6923C167.403 13.5667 167.511 14.2905 167.726 14.8638C167.955 15.4372 168.299 15.8672 168.758 16.1538C169.216 16.4262 169.797 16.5623 170.499 16.5623ZM181.077 18.4113C180.719 18.4113 180.332 18.3683 179.916 18.2823C179.501 18.1963 179.107 18.0387 178.734 17.8093C178.376 17.58 178.082 17.2647 177.852 16.8633C177.623 16.4477 177.508 15.9102 177.508 15.2508C177.508 14.4768 177.688 13.839 178.046 13.3373C178.404 12.8357 178.906 12.4415 179.551 12.1548C180.196 11.8682 180.963 11.6675 181.851 11.5528C182.754 11.4382 183.736 11.3808 184.797 11.3808V10.2628C184.797 9.89015 184.732 9.56049 184.603 9.27382C184.489 8.98715 184.267 8.76499 183.937 8.60732C183.622 8.44965 183.163 8.37082 182.561 8.37082C181.959 8.37082 181.486 8.44965 181.142 8.60732C180.812 8.75065 180.576 8.93699 180.432 9.16632C180.303 9.38132 180.239 9.61782 180.239 9.87582V10.1983H178.089C178.075 10.1267 178.067 10.055 178.067 9.98332C178.067 9.91165 178.067 9.82565 178.067 9.72532C178.067 9.05165 178.254 8.48549 178.626 8.02682C179.013 7.55382 179.551 7.19549 180.239 6.95182C180.927 6.70815 181.722 6.58632 182.625 6.58632C183.6 6.58632 184.41 6.72965 185.055 7.01632C185.714 7.28865 186.209 7.68282 186.538 8.19882C186.868 8.71482 187.033 9.33832 187.033 10.0693V15.8098C187.033 16.0822 187.097 16.2757 187.226 16.3903C187.37 16.505 187.535 16.5623 187.721 16.5623H188.495V18.0673C188.323 18.139 188.108 18.2107 187.85 18.2823C187.592 18.354 187.291 18.3898 186.947 18.3898C186.56 18.3898 186.23 18.3182 185.958 18.1748C185.7 18.0458 185.485 17.8595 185.313 17.6158C185.155 17.3578 185.048 17.0712 184.99 16.7558H184.861C184.603 17.0855 184.288 17.3793 183.915 17.6373C183.557 17.881 183.141 18.0673 182.668 18.1963C182.195 18.3397 181.665 18.4113 181.077 18.4113ZM181.701 16.5623C182.145 16.5623 182.554 16.4978 182.926 16.3688C183.313 16.2255 183.643 16.032 183.915 15.7883C184.188 15.5303 184.403 15.2293 184.56 14.8853C184.718 14.527 184.797 14.14 184.797 13.7243V12.9718C183.808 12.9718 182.941 13.0292 182.195 13.1438C181.45 13.2585 180.87 13.4735 180.454 13.7888C180.038 14.0898 179.83 14.5127 179.83 15.0573C179.83 15.387 179.902 15.6665 180.045 15.8958C180.189 16.1108 180.404 16.2757 180.69 16.3903C180.977 16.505 181.314 16.5623 181.701 16.5623ZM193.93 18.4113C193.013 18.4113 192.217 18.2035 191.544 17.7878C190.87 17.3722 190.347 16.7272 189.974 15.8528C189.616 14.9785 189.437 13.8462 189.437 12.4558C189.437 11.0942 189.623 9.98332 189.996 9.12332C190.368 8.26332 190.884 7.62549 191.544 7.20982C192.203 6.79415 192.963 6.58632 193.823 6.58632C194.324 6.58632 194.79 6.64365 195.22 6.75832C195.65 6.87299 196.03 7.05215 196.36 7.29582C196.704 7.53949 196.99 7.84765 197.22 8.22032H197.37V2.60882H199.606V18.1533H197.779L197.564 16.6053H197.413C197.04 17.2073 196.546 17.6588 195.93 17.9598C195.328 18.2608 194.661 18.4113 193.93 18.4113ZM194.554 16.4763C195.213 16.4763 195.743 16.333 196.145 16.0463C196.56 15.7453 196.868 15.3153 197.069 14.7563C197.27 14.183 197.37 13.4878 197.37 12.6708V12.3698C197.37 11.6818 197.306 11.0942 197.177 10.6068C197.048 10.1195 196.861 9.72532 196.618 9.42432C196.374 9.10899 196.08 8.87965 195.736 8.73632C195.392 8.59299 195.005 8.52132 194.575 8.52132C193.916 8.52132 193.378 8.65749 192.963 8.92982C192.547 9.18782 192.239 9.59632 192.038 10.1553C191.852 10.7143 191.759 11.4382 191.759 12.3268V12.7138C191.759 13.6025 191.859 14.3263 192.06 14.8853C192.26 15.43 192.561 15.8313 192.963 16.0893C193.378 16.3473 193.909 16.4763 194.554 16.4763ZM211.715 18.4113C210.539 18.4113 209.543 18.2035 208.726 17.7878C207.923 17.3578 207.314 16.7057 206.899 15.8313C206.497 14.957 206.297 13.8462 206.297 12.4988C206.297 11.1372 206.497 10.0263 206.899 9.16632C207.314 8.29199 207.923 7.64699 208.726 7.23132C209.543 6.80132 210.539 6.58632 211.715 6.58632C212.919 6.58632 213.922 6.80132 214.725 7.23132C215.527 7.64699 216.129 8.29199 216.531 9.16632C216.946 10.0263 217.154 11.1372 217.154 12.4988C217.154 13.8462 216.946 14.957 216.531 15.8313C216.129 16.7057 215.527 17.3578 214.725 17.7878C213.922 18.2035 212.919 18.4113 211.715 18.4113ZM211.715 16.5623C212.431 16.5623 213.019 16.4262 213.478 16.1538C213.936 15.8672 214.273 15.4372 214.488 14.8638C214.717 14.2905 214.832 13.5667 214.832 12.6923V12.3053C214.832 11.431 214.717 10.7072 214.488 10.1338C214.273 9.56049 213.936 9.13765 213.478 8.86532C213.019 8.57865 212.431 8.43532 211.715 8.43532C211.012 8.43532 210.432 8.57865 209.973 8.86532C209.514 9.13765 209.17 9.56049 208.941 10.1338C208.726 10.7072 208.619 11.431 208.619 12.3053V12.6923C208.619 13.5667 208.726 14.2905 208.941 14.8638C209.17 15.4372 209.514 15.8672 209.973 16.1538C210.432 16.4262 211.012 16.5623 211.715 16.5623ZM219.433 18.1533V6.84432H221.282L221.476 8.45682H221.626C221.899 8.04115 222.221 7.69715 222.594 7.42482C222.966 7.15249 223.375 6.94465 223.819 6.80132C224.278 6.65799 224.78 6.58632 225.324 6.58632C226.041 6.58632 226.672 6.71532 227.216 6.97332C227.761 7.21699 228.184 7.61832 228.485 8.17732C228.8 8.73632 228.958 9.48882 228.958 10.4348V18.1533H226.722V10.7788C226.722 10.3488 226.664 9.99049 226.55 9.70382C226.449 9.41715 226.299 9.18782 226.098 9.01582C225.898 8.84382 225.661 8.72199 225.389 8.65032C225.116 8.57865 224.815 8.54282 224.486 8.54282C223.97 8.54282 223.497 8.67182 223.067 8.92982C222.651 9.17349 222.314 9.51749 222.056 9.96182C221.798 10.4062 221.669 10.9293 221.669 11.5313V18.1533H219.433ZM238.984 18.4113C238.339 18.4113 237.83 18.2895 237.457 18.0458C237.099 17.7878 236.841 17.4653 236.683 17.0783C236.54 16.677 236.468 16.2542 236.468 15.8098V8.69332H235.049V6.84432H236.511L236.92 3.68382H238.704V6.84432H240.747V8.69332H238.704V15.5518C238.704 15.8815 238.776 16.1323 238.919 16.3043C239.062 16.4763 239.299 16.5623 239.629 16.5623H240.747V18.0673C240.603 18.1247 240.424 18.1748 240.209 18.2178C240.008 18.2752 239.801 18.3182 239.586 18.3468C239.371 18.3898 239.17 18.4113 238.984 18.4113ZM242.718 18.1533V2.60882H244.954V8.19882H245.104C245.377 7.85482 245.685 7.56815 246.029 7.33882C246.373 7.09515 246.76 6.90882 247.19 6.77982C247.62 6.65082 248.093 6.58632 248.609 6.58632C249.326 6.58632 249.956 6.71532 250.501 6.97332C251.046 7.21699 251.468 7.61832 251.769 8.17732C252.085 8.73632 252.242 9.48882 252.242 10.4348V18.1533H250.006V10.7788C250.006 10.3488 249.949 9.99049 249.834 9.70382C249.734 9.41715 249.584 9.18782 249.383 9.01582C249.182 8.84382 248.946 8.72199 248.673 8.65032C248.401 8.57865 248.1 8.54282 247.77 8.54282C247.254 8.54282 246.781 8.66465 246.351 8.90832C245.936 9.15199 245.599 9.49599 245.341 9.94032C245.083 10.3847 244.954 10.915 244.954 11.5313V18.1533H242.718ZM259.73 18.4113C258.569 18.4113 257.594 18.2035 256.806 17.7878C256.032 17.3578 255.444 16.7057 255.043 15.8313C254.641 14.957 254.441 13.8462 254.441 12.4988C254.441 11.1372 254.641 10.0263 255.043 9.16632C255.444 8.29199 256.039 7.64699 256.827 7.23132C257.615 6.80132 258.597 6.58632 259.773 6.58632C260.848 6.58632 261.743 6.79415 262.46 7.20982C263.191 7.61115 263.743 8.22749 264.116 9.05882C264.488 9.89015 264.675 10.9365 264.675 12.1978V13.0578H256.741C256.77 13.8605 256.892 14.5342 257.107 15.0788C257.322 15.6092 257.644 16.0033 258.074 16.2613C258.518 16.505 259.077 16.6268 259.751 16.6268C260.167 16.6268 260.539 16.5767 260.869 16.4763C261.199 16.3617 261.478 16.204 261.708 16.0033C261.937 15.7883 262.116 15.5375 262.245 15.2508C262.374 14.9498 262.439 14.613 262.439 14.2403H264.632C264.632 14.914 264.517 15.5088 264.288 16.0248C264.058 16.5408 263.721 16.978 263.277 17.3363C262.847 17.6803 262.331 17.9455 261.729 18.1318C261.127 18.3182 260.461 18.4113 259.73 18.4113ZM256.784 11.4238H262.331C262.331 10.8648 262.267 10.399 262.138 10.0263C262.023 9.63932 261.851 9.32399 261.622 9.08032C261.392 8.83665 261.12 8.66465 260.805 8.56432C260.489 8.44965 260.131 8.39232 259.73 8.39232C259.128 8.39232 258.612 8.49982 258.182 8.71482C257.766 8.92982 257.443 9.26665 257.214 9.72532C256.985 10.1697 256.841 10.7358 256.784 11.4238Z" fill="#EEF3F7"/>
<path d="M99.5433 55.0596L109.664 29.2488H115.045L125.204 55.0596H120.689L118.393 49.0772H106.165L103.87 55.0596H99.5433ZM107.52 45.5028H117.001L114.104 37.9402C114.029 37.7144 113.916 37.4009 113.766 36.9996C113.615 36.5982 113.452 36.1593 113.276 35.6827C113.126 35.2061 112.963 34.7295 112.787 34.2529C112.637 33.7513 112.499 33.2998 112.373 32.8984H112.148C111.997 33.375 111.809 33.9394 111.583 34.5916C111.358 35.2437 111.132 35.8708 110.906 36.4728C110.705 37.0748 110.53 37.5639 110.379 37.9402L107.52 45.5028ZM128 61.5687V35.2688H131.198L131.536 37.9778H131.8C132.477 36.9243 133.342 36.1342 134.396 35.6074C135.449 35.0807 136.628 34.8173 137.933 34.8173C139.563 34.8173 140.955 35.181 142.109 35.9084C143.288 36.6359 144.191 37.7646 144.818 39.2947C145.445 40.8248 145.759 42.8064 145.759 45.2394C145.759 47.5973 145.432 49.5412 144.78 51.0713C144.153 52.5763 143.263 53.6925 142.109 54.4199C140.955 55.1474 139.626 55.5111 138.121 55.5111C137.243 55.5111 136.428 55.4107 135.675 55.2101C134.923 55.0094 134.245 54.6959 133.643 54.2694C133.066 53.843 132.565 53.3037 132.138 52.6516H131.913V61.5687H128ZM136.766 52.1248C137.945 52.1248 138.898 51.8991 139.626 51.4476C140.353 50.971 140.88 50.2436 141.206 49.2653C141.557 48.2871 141.733 47.0454 141.733 45.5404V44.8632C141.733 43.2829 141.557 42.0037 141.206 41.0254C140.855 40.0472 140.315 39.3323 139.588 38.8808C138.886 38.4293 137.97 38.2036 136.841 38.2036C135.688 38.2036 134.747 38.4669 134.02 38.9937C133.292 39.4954 132.753 40.2479 132.402 41.2512C132.076 42.2545 131.913 43.4711 131.913 44.9008V45.4276C131.913 46.6065 132.025 47.6224 132.251 48.4752C132.477 49.328 132.803 50.0304 133.229 50.5822C133.656 51.1089 134.17 51.4977 134.772 51.7486C135.374 51.9994 136.039 52.1248 136.766 52.1248ZM149.788 61.5687V35.2688H152.986L153.325 37.9778H153.588C154.266 36.9243 155.131 36.1342 156.184 35.6074C157.238 35.0807 158.417 34.8173 159.721 34.8173C161.352 34.8173 162.744 35.181 163.898 35.9084C165.077 36.6359 165.98 37.7646 166.607 39.2947C167.234 40.8248 167.547 42.8064 167.547 45.2394C167.547 47.5973 167.221 49.5412 166.569 51.0713C165.942 52.5763 165.051 53.6925 163.898 54.4199C162.744 55.1474 161.414 55.5111 159.909 55.5111C159.031 55.5111 158.216 55.4107 157.464 55.2101C156.711 55.0094 156.034 54.6959 155.432 54.2694C154.855 53.843 154.353 53.3037 153.927 52.6516H153.701V61.5687H149.788ZM158.555 52.1248C159.734 52.1248 160.687 51.8991 161.414 51.4476C162.142 50.971 162.669 50.2436 162.995 49.2653C163.346 48.2871 163.521 47.0454 163.521 45.5404V44.8632C163.521 43.2829 163.346 42.0037 162.995 41.0254C162.643 40.0472 162.104 39.3323 161.377 38.8808C160.674 38.4293 159.759 38.2036 158.63 38.2036C157.476 38.2036 156.536 38.4669 155.808 38.9937C155.081 39.4954 154.542 40.2479 154.19 41.2512C153.864 42.2545 153.701 43.4711 153.701 44.9008V45.4276C153.701 46.6065 153.814 47.6224 154.04 48.4752C154.266 49.328 154.592 50.0304 155.018 50.5822C155.445 51.1089 155.959 51.4977 156.561 51.7486C157.163 51.9994 157.827 52.1248 158.555 52.1248ZM189.376 55.5111C187.972 55.5111 186.617 55.3606 185.313 55.0596C184.009 54.7837 182.855 54.3322 181.851 53.7051C180.848 53.0529 180.058 52.2377 179.481 51.2594C178.904 50.2561 178.616 49.0647 178.616 47.6851C178.616 47.5346 178.616 47.3966 178.616 47.2712C178.641 47.1207 178.653 46.9953 178.653 46.8949H182.867C182.867 46.9702 182.855 47.0831 182.83 47.2336C182.83 47.3841 182.83 47.5095 182.83 47.6098C182.83 48.5379 183.106 49.328 183.657 49.9802C184.209 50.6324 184.974 51.1215 185.953 51.4476C186.956 51.7737 188.097 51.9367 189.376 51.9367C190.079 51.9367 190.756 51.8991 191.408 51.8238C192.06 51.7235 192.65 51.5855 193.177 51.4099C193.728 51.2093 194.205 50.971 194.606 50.6951C195.008 50.3941 195.321 50.0429 195.547 49.6416C195.773 49.2402 195.886 48.7762 195.886 48.2494C195.886 47.4468 195.647 46.7821 195.171 46.2553C194.719 45.7286 194.092 45.2896 193.289 44.9384C192.512 44.5873 191.621 44.2737 190.618 43.9978C189.64 43.7219 188.624 43.446 187.57 43.1701C186.517 42.8942 185.489 42.5681 184.485 42.1918C183.507 41.8156 182.617 41.3641 181.814 40.8373C181.036 40.2855 180.409 39.6082 179.933 38.8056C179.481 37.9778 179.255 36.9745 179.255 35.7956C179.255 34.6668 179.494 33.6635 179.97 32.7856C180.447 31.9077 181.137 31.1802 182.04 30.6033C182.943 30.0013 184.021 29.5498 185.275 29.2488C186.53 28.9478 187.947 28.7973 189.527 28.7973C190.881 28.7973 192.161 28.9478 193.365 29.2488C194.569 29.5247 195.622 29.9637 196.525 30.5657C197.428 31.1677 198.131 31.9327 198.632 32.8608C199.159 33.7889 199.422 34.8926 199.422 36.1718V36.6233H195.246V36.1342C195.246 35.3315 195.008 34.6543 194.531 34.1024C194.055 33.5506 193.39 33.1242 192.537 32.8232C191.684 32.5222 190.693 32.3717 189.565 32.3717C188.235 32.3717 187.119 32.5097 186.216 32.7856C185.313 33.0364 184.623 33.4001 184.147 33.8767C183.695 34.3282 183.469 34.88 183.469 35.5322C183.469 36.2596 183.708 36.8616 184.184 37.3382C184.661 37.7897 185.288 38.1785 186.065 38.5046C186.868 38.8307 187.759 39.1317 188.737 39.4076C189.74 39.6584 190.756 39.9343 191.784 40.2353C192.838 40.5112 193.854 40.8373 194.832 41.2136C195.835 41.5898 196.726 42.0539 197.503 42.6057C198.306 43.1575 198.946 43.8473 199.422 44.6751C199.899 45.4777 200.137 46.4685 200.137 47.6474C200.137 49.5036 199.673 51.0212 198.745 52.2001C197.817 53.3539 196.538 54.1942 194.907 54.7209C193.302 55.2477 191.458 55.5111 189.376 55.5111ZM209.428 55.5111C208.299 55.5111 207.408 55.2979 206.756 54.8714C206.129 54.4199 205.678 53.8556 205.402 53.1783C205.151 52.476 205.026 51.736 205.026 50.9584V38.5046H202.542V35.2688H205.101L205.816 29.7379H208.939V35.2688H212.513V38.5046H208.939V50.5069C208.939 51.0839 209.064 51.5228 209.315 51.8238C209.566 52.1248 209.979 52.2753 210.556 52.2753H212.513V54.9091C212.262 55.0094 211.949 55.0972 211.572 55.1724C211.221 55.2728 210.857 55.348 210.481 55.3982C210.105 55.4734 209.754 55.5111 209.428 55.5111ZM224.391 55.5111C222.334 55.5111 220.591 55.1474 219.161 54.4199C217.756 53.6674 216.69 52.5262 215.963 50.9961C215.26 49.466 214.909 47.522 214.909 45.1642C214.909 42.7813 215.26 40.8373 215.963 39.3323C216.69 37.8022 217.756 36.6735 219.161 35.9461C220.591 35.1936 222.334 34.8173 224.391 34.8173C226.498 34.8173 228.253 35.1936 229.658 35.9461C231.063 36.6735 232.116 37.8022 232.819 39.3323C233.546 40.8373 233.91 42.7813 233.91 45.1642C233.91 47.522 233.546 49.466 232.819 50.9961C232.116 52.5262 231.063 53.6674 229.658 54.4199C228.253 55.1474 226.498 55.5111 224.391 55.5111ZM224.391 52.2753C225.645 52.2753 226.673 52.037 227.476 51.5604C228.279 51.0588 228.868 50.3063 229.244 49.3029C229.646 48.2996 229.846 47.0329 229.846 45.5028V44.8256C229.846 43.2955 229.646 42.0288 229.244 41.0254C228.868 40.0221 228.279 39.2822 227.476 38.8056C226.673 38.3039 225.645 38.0531 224.391 38.0531C223.162 38.0531 222.146 38.3039 221.343 38.8056C220.54 39.2822 219.938 40.0221 219.537 41.0254C219.161 42.0288 218.973 43.2955 218.973 44.8256V45.5028C218.973 47.0329 219.161 48.2996 219.537 49.3029C219.938 50.3063 220.54 51.0588 221.343 51.5604C222.146 52.037 223.162 52.2753 224.391 52.2753ZM237.898 55.0596V35.2688H241.134L241.473 38.4669H241.698C241.924 37.8399 242.213 37.2504 242.564 36.6986C242.94 36.1467 243.417 35.6952 243.994 35.3441C244.596 34.9929 245.323 34.8173 246.176 34.8173C246.577 34.8173 246.928 34.8549 247.229 34.9302C247.555 35.0054 247.806 35.0682 247.982 35.1183V38.8056H246.665C245.862 38.8056 245.147 38.931 244.52 39.1818C243.918 39.4327 243.404 39.8089 242.978 40.3106C242.576 40.7872 242.275 41.3766 242.075 42.0789C241.899 42.7813 241.811 43.5714 241.811 44.4493V55.0596H237.898ZM258.74 55.5111C256.708 55.5111 255.003 55.1474 253.623 54.4199C252.269 53.6674 251.24 52.5262 250.538 50.9961C249.836 49.466 249.484 47.522 249.484 45.1642C249.484 42.7813 249.836 40.8373 250.538 39.3323C251.24 37.8022 252.281 36.6735 253.661 35.9461C255.04 35.1936 256.759 34.8173 258.815 34.8173C260.697 34.8173 262.264 35.181 263.519 35.9084C264.798 36.6108 265.764 37.6894 266.416 39.1442C267.068 40.599 267.394 42.4301 267.394 44.6374V46.1424H253.51C253.561 47.5471 253.774 48.726 254.15 49.6792C254.526 50.6073 255.091 51.2971 255.843 51.7486C256.621 52.175 257.599 52.3882 258.778 52.3882C259.505 52.3882 260.157 52.3004 260.734 52.1248C261.311 51.9242 261.8 51.6482 262.202 51.2971C262.603 50.9208 262.917 50.4819 263.142 49.9802C263.368 49.4534 263.481 48.864 263.481 48.2118H267.319C267.319 49.3907 267.118 50.4317 266.717 51.3347C266.315 52.2377 265.726 53.0027 264.948 53.6298C264.196 54.2318 263.293 54.6959 262.239 55.0219C261.186 55.348 260.019 55.5111 258.74 55.5111ZM253.586 43.2829H263.293C263.293 42.3047 263.18 41.4895 262.954 40.8373C262.754 40.1601 262.453 39.6082 262.051 39.1818C261.65 38.7554 261.173 38.4544 260.621 38.2788C260.07 38.0782 259.443 37.9778 258.74 37.9778C257.687 37.9778 256.784 38.1659 256.031 38.5422C255.304 38.9184 254.739 39.5079 254.338 40.3106C253.937 41.0882 253.686 42.0789 253.586 43.2829Z" fill="#EEF3F7"/>
</svg>
