<svg width="53" height="51" viewBox="0 0 53 51" fill="none" xmlns="http://www.w3.org/2000/svg">
<path d="M52.7 0.79999V8.99999C50.1667 9.53333 48.0333 10.8 46.3 12.8C44.7 14.8 43.5 17.3333 42.7 20.4C42.0333 23.3333 41.7 26.6 41.7 30.2H50.9V51H31.3V32.4C31.3 24.6667 32.3667 18.6667 34.5 14.4C36.7667 9.99999 39.5667 6.8 42.9 4.8C46.2333 2.66666 49.5 1.33332 52.7 0.79999ZM21.7 0.79999V8.99999C19.1667 9.53333 17.0333 10.8 15.3 12.8C13.7 14.8 12.5 17.3333 11.7 20.4C11.0333 23.3333 10.7 26.6 10.7 30.2H19.7V51H0.100001V32.4C0.100001 24.6667 1.23333 18.6667 3.5 14.4C5.76667 9.99999 8.56667 6.8 11.9 4.8C15.2333 2.66666 18.5 1.33332 21.7 0.79999Z" fill="#A3C7C4"/>
</svg>
