<svg width="926" height="405" viewBox="0 0 926 405" fill="none" xmlns="http://www.w3.org/2000/svg">
<path d="M67.3183 211.154C74.8076 204.302 75.3243 192.677 68.4726 185.187C61.6208 177.698 49.9951 177.181 42.5058 184.033C35.0166 190.885 34.4998 202.511 41.3516 210C48.2034 217.489 59.8291 218.006 67.3183 211.154Z" fill="black"/>
<path d="M63.6284 184.405C70.8023 192.246 70.215 204.376 62.4238 211.504C54.6328 218.632 42.4983 218.141 35.3244 210.3C28.1507 202.458 28.738 190.328 36.529 183.2C44.3201 176.072 56.4546 176.564 63.6284 184.405Z" fill="#1DA867" stroke="black" stroke-width="0.533737"/>
<path d="M40.594 196.687L46.4575 191.322L61.0015 197.924L56.8353 201.736L54.3486 200.598L49.1331 205.37L50.0459 207.948L45.8797 211.759L40.594 196.687ZM46.1744 196.9L47.7872 201.482L50.5955 198.913L46.1744 196.9Z" fill="#171717"/>
<path d="M54.9134 190.922C55.153 190.876 55.3717 190.748 55.57 190.553C55.915 190.229 56.2812 189.629 56.6727 188.779C56.9511 188.174 57.1786 187.497 57.3562 186.746L60.793 188.329C60.5796 189.173 60.2674 190.042 59.8559 190.936C58.8202 193.185 57.7679 194.63 56.7109 195.31C55.6119 196.012 54.3133 196.033 52.786 195.329L49.4055 193.773L49.2504 193.702L49.179 193.857L48.0246 196.364L44.5788 194.778L45.7332 192.27L45.8046 192.115L45.6494 192.044L43.8979 191.237L44.9812 186.581L47.6079 187.79L47.7631 187.861L47.8345 187.706L49.8644 183.297L53.3102 184.884L51.2803 189.293L51.2089 189.448L51.364 189.519L54.1811 190.816C54.4265 190.929 54.6723 190.969 54.9134 190.922Z" fill="#171717" stroke="#FFF59F" stroke-width="0.341592"/>
<path d="M314.613 169.481C323.668 164.894 327.29 153.835 322.702 144.78C318.115 135.725 307.056 132.103 298.001 136.69C288.946 141.277 285.324 152.337 289.911 161.392C294.499 170.447 305.558 174.068 314.613 169.481Z" fill="black"/>
<path d="M318.248 142.725C323.051 152.205 319.226 163.731 309.806 168.504C300.386 173.276 288.83 169.542 284.027 160.061C279.224 150.581 283.049 139.054 292.469 134.282C301.889 129.51 313.445 133.244 318.248 142.725Z" fill="#1DA867" stroke="black" stroke-width="0.533737"/>
<path d="M292.761 148.365L299.85 144.773L312.085 155.041L307.048 157.593L304.959 155.828L298.653 159.023L298.839 161.751L293.802 164.303L292.761 148.365ZM298.079 150.069L298.401 154.917L301.797 153.196L298.079 150.069Z" fill="#171717"/>
<path d="M308.104 146.66C308.347 146.68 308.592 146.615 308.836 146.481C309.255 146.262 309.769 145.783 310.375 145.069C310.805 144.561 311.206 143.969 311.579 143.294L314.464 145.742C314.032 146.498 313.498 147.251 312.861 148.002C311.259 149.89 309.857 150.998 308.656 151.37C307.409 151.75 306.153 151.421 304.871 150.334L302.033 147.926L301.902 147.816L301.792 147.946L300.006 150.051L297.113 147.597L298.899 145.492L299.01 145.362L298.879 145.251L297.409 144.004L299.704 139.809L301.909 141.68L302.039 141.791L302.15 141.66L305.29 137.959L308.182 140.413L305.042 144.114L304.932 144.245L305.062 144.355L307.427 146.361C307.633 146.536 307.859 146.64 308.104 146.66Z" fill="#171717" stroke="#FFF59F" stroke-width="0.341592"/>
<path d="M447.025 105.148C458.365 114.12 474.832 112.2 483.804 100.86C492.776 89.5205 490.857 73.0541 479.517 64.0818C468.177 55.1094 451.711 57.0288 442.738 68.3688C433.766 79.7088 435.685 96.1752 447.025 105.148Z" fill="black"/>
<path d="M483.8 93.8715C474.406 105.745 457.215 107.679 445.417 98.3455C433.621 89.0116 431.549 71.8356 440.943 59.9625C450.337 48.0896 467.529 46.1546 479.326 55.4885C491.123 64.8225 493.194 81.9986 483.8 93.8715Z" fill="#1DA867" stroke="black" stroke-width="0.760341"/>
<path d="M461.286 64.2763L470.165 71.301L464.191 93.2562L457.882 88.265L458.916 84.5092L451.019 78.2609L447.602 80.1312L441.294 75.1399L461.286 64.2763ZM462.257 72.1723L456.18 75.4832L460.433 78.8477L462.257 72.1723Z" fill="#171717"/>
<path d="M472.651 83.1005C472.771 83.4269 473.001 83.7053 473.32 83.9398C473.853 84.3515 474.78 84.7297 476.065 85.0868C476.979 85.3406 477.984 85.5063 479.079 85.5853L477.637 90.7785C476.401 90.6705 475.108 90.4294 473.757 90.0541C470.358 89.1097 468.087 87.9586 466.89 86.6271C465.653 85.2413 465.328 83.4199 465.969 81.112L467.388 76.004L467.453 75.7695L467.219 75.7044L463.43 74.6518L464.877 69.445L468.666 70.4976L468.9 70.5627L468.965 70.3283L469.701 67.6816L476.496 68.1451L475.393 72.1142L475.328 72.3487L475.562 72.4138L482.225 74.2648L480.778 79.4716L474.116 77.6206L473.881 77.5554L473.816 77.7899L472.634 82.0466C472.531 82.4174 472.531 82.7721 472.651 83.1005Z" fill="#171717" stroke="#FFF59F" stroke-width="0.486618"/>
<path d="M95.961 130.131C115.553 135.663 135.92 124.265 141.452 104.673C146.984 85.0814 135.586 64.7144 115.994 59.1825C96.4019 53.6505 76.035 65.0484 70.5031 84.6404C64.9711 104.232 76.369 124.599 95.961 130.131Z" fill="black"/>
<path d="M137.671 95.589C131.879 116.102 110.577 127.912 90.1955 122.157C69.8141 116.403 57.8352 95.1952 63.6272 74.6823C69.4191 54.1696 90.7209 42.359 111.102 48.1139C131.484 53.8688 143.463 75.0763 137.671 95.589Z" fill="#1DA867" stroke="black" stroke-width="1.07045"/>
<path d="M92.4028 69.2904L107.742 73.6215L111.847 105.391L100.948 102.314L100.262 96.8725L86.6178 93.0201L83.1868 97.2989L72.288 94.2215L92.4028 69.2904ZM97.9339 79.0296L91.8248 86.619L99.1714 88.6934L97.9339 79.0296Z" fill="#171717"/>
<path d="M117.354 87.6149C117.686 87.9745 118.135 88.212 118.677 88.3441C119.593 88.5911 121.002 88.5816 122.866 88.3509C124.191 88.1869 125.587 87.8589 127.053 87.3692L127.986 94.9C126.321 95.4279 124.509 95.8136 122.55 96.0561C117.621 96.6663 114.047 96.3976 111.771 95.3139C109.414 94.1812 108.007 91.9894 107.593 88.6429L106.676 81.2356L106.634 80.8956L106.294 80.9377L100.8 81.6178L99.8649 74.0673L105.359 73.3872L105.699 73.3451L105.657 73.0052L105.182 69.1671L114.266 66.0956L114.978 71.8513L115.02 72.1913L115.36 72.1492L125.021 70.9533L125.956 78.5037L116.295 79.6997L115.955 79.7418L115.997 80.0817L116.761 86.2545C116.828 86.7922 117.02 87.2531 117.354 87.6149Z" fill="#171717" stroke="#FFF59F" stroke-width="0.68509"/>
<path d="M616.356 189.517C633.505 194.359 651.332 184.383 656.174 167.234C661.016 150.085 651.04 132.258 633.891 127.416C616.742 122.574 598.915 132.55 594.073 149.699C589.231 166.848 599.207 184.675 616.356 189.517Z" fill="black"/>
<path d="M652.863 159.283C647.793 177.238 629.148 187.575 611.308 182.538C593.468 177.501 582.983 158.938 588.053 140.983C593.123 123.028 611.768 112.691 629.608 117.728C647.448 122.765 657.933 141.328 652.863 159.283Z" fill="#1DA867" stroke="black" stroke-width="0.936966"/>
<path d="M613.241 136.264L626.667 140.055L630.26 167.863L620.72 165.17L620.119 160.407L608.177 157.035L605.174 160.78L595.634 158.087L613.241 136.264ZM618.082 144.789L612.735 151.432L619.165 153.248L618.082 144.789Z" fill="#171717"/>
<path d="M635.081 152.303C635.372 152.618 635.765 152.826 636.24 152.941C637.041 153.158 638.275 153.149 639.906 152.947C641.066 152.804 642.288 152.517 643.571 152.088L644.387 158.68C642.93 159.142 641.345 159.479 639.63 159.692C635.316 160.226 632.187 159.991 630.195 159.042C628.132 158.051 626.9 156.132 626.537 153.203L625.735 146.719L625.698 146.422L625.4 146.459L620.591 147.054L619.773 140.445L624.582 139.85L624.88 139.813L624.843 139.515L624.427 136.156L632.378 133.467L633.002 138.505L633.039 138.803L633.336 138.766L641.793 137.719L642.611 144.328L634.154 145.375L633.857 145.412L633.894 145.709L634.562 151.112C634.621 151.583 634.789 151.986 635.081 152.303Z" fill="#171717" stroke="#FFF59F" stroke-width="0.599658"/>
<path d="M728.316 125.952C734.991 133.6 746.601 134.389 754.249 127.715C761.897 121.04 762.685 109.43 756.011 101.782C749.337 94.1342 737.726 93.3453 730.078 100.02C722.431 106.694 721.642 118.305 728.316 125.952Z" fill="black"/>
<path d="M755.146 122.892C747.139 129.88 735.026 129.009 728.082 121.053C721.139 113.097 721.914 100.977 729.921 93.9889C737.929 87.0008 750.042 87.8721 756.985 95.8279C763.929 103.784 763.153 115.904 755.146 122.892Z" fill="#1DA867" stroke="black" stroke-width="0.533737"/>
<path d="M743.407 99.5757L748.632 105.563L741.691 119.949L737.978 115.694L739.174 113.235L734.526 107.909L731.928 108.761L728.215 104.507L743.407 99.5757ZM743.063 105.15L738.444 106.655L740.947 109.522L743.063 105.15Z" fill="#171717"/>
<path d="M748.836 114.028C748.877 114.269 749 114.491 749.19 114.693C749.505 115.046 750.096 115.426 750.937 115.837C751.535 116.13 752.208 116.373 752.954 116.568L751.291 119.967C750.452 119.734 749.591 119.401 748.707 118.969C746.482 117.881 745.063 116.795 744.407 115.722C743.732 114.607 743.741 113.309 744.48 111.798L746.115 108.455L746.19 108.302L746.036 108.227L743.557 107.014L745.224 103.606L747.703 104.819L747.857 104.894L747.932 104.741L748.779 103.008L753.409 104.2L752.139 106.798L752.064 106.952L752.217 107.027L756.577 109.159L754.911 112.567L750.55 110.434L750.397 110.359L750.322 110.513L748.959 113.299C748.84 113.541 748.795 113.786 748.836 114.028Z" fill="#171717" stroke="#FFF59F" stroke-width="0.341592"/>
</svg>
