<svg width="926" height="405" viewBox="0 0 926 405" fill="none" xmlns="http://www.w3.org/2000/svg">
<path d="M167.318 298.154C174.808 291.302 175.324 279.677 168.473 272.187C161.621 264.698 149.995 264.181 142.506 271.033C135.017 277.885 134.5 289.511 141.352 297C148.203 304.489 159.829 305.006 167.318 298.154Z" fill="black"/>
<path d="M163.628 271.405C170.802 279.246 170.215 291.376 162.424 298.504C154.633 305.632 142.498 305.141 135.324 297.3C128.151 289.458 128.738 277.328 136.529 270.2C144.32 263.072 156.455 263.564 163.628 271.405Z" fill="#1DA867" stroke="black" stroke-width="0.533737"/>
<path d="M140.594 283.687L146.458 278.322L161.001 284.924L156.835 288.736L154.349 287.598L149.133 292.37L150.046 294.948L145.88 298.759L140.594 283.687ZM146.174 283.9L147.787 288.482L150.596 285.913L146.174 283.9Z" fill="#171717"/>
<path d="M154.913 277.922C155.153 277.876 155.372 277.748 155.57 277.553C155.915 277.229 156.281 276.629 156.673 275.779C156.951 275.174 157.179 274.497 157.356 273.746L160.793 275.329C160.58 276.173 160.267 277.042 159.856 277.936C158.82 280.185 157.768 281.63 156.711 282.31C155.612 283.012 154.313 283.033 152.786 282.329L149.406 280.773L149.25 280.702L149.179 280.857L148.025 283.364L144.579 281.778L145.733 279.27L145.805 279.115L145.649 279.044L143.898 278.237L144.981 273.581L147.608 274.79L147.763 274.861L147.834 274.706L149.864 270.297L153.31 271.884L151.28 276.293L151.209 276.448L151.364 276.519L154.181 277.816C154.426 277.929 154.672 277.969 154.913 277.922Z" fill="#171717" stroke="#FFF59F" stroke-width="0.341592"/>
<path d="M314.613 246.481C323.668 241.894 327.29 230.835 322.702 221.78C318.115 212.725 307.056 209.103 298.001 213.69C288.946 218.277 285.324 229.337 289.911 238.392C294.499 247.447 305.558 251.068 314.613 246.481Z" fill="black"/>
<path d="M318.248 219.725C323.051 229.205 319.226 240.731 309.806 245.504C300.386 250.276 288.83 246.542 284.027 237.061C279.224 227.581 283.049 216.054 292.469 211.282C301.889 206.51 313.445 210.244 318.248 219.725Z" fill="#1DA867" stroke="black" stroke-width="0.533737"/>
<path d="M292.761 225.365L299.85 221.773L312.085 232.041L307.048 234.593L304.959 232.828L298.653 236.023L298.839 238.751L293.802 241.303L292.761 225.365ZM298.079 227.069L298.401 231.917L301.797 230.196L298.079 227.069Z" fill="#171717"/>
<path d="M308.104 223.66C308.347 223.68 308.592 223.615 308.836 223.481C309.255 223.262 309.769 222.783 310.375 222.069C310.805 221.561 311.206 220.969 311.579 220.294L314.464 222.742C314.032 223.498 313.498 224.251 312.861 225.002C311.259 226.89 309.857 227.998 308.656 228.37C307.409 228.75 306.153 228.421 304.871 227.334L302.033 224.926L301.902 224.816L301.792 224.946L300.006 227.051L297.113 224.597L298.899 222.492L299.01 222.362L298.879 222.251L297.409 221.004L299.704 216.809L301.909 218.68L302.039 218.791L302.15 218.66L305.29 214.959L308.182 217.413L305.042 221.114L304.932 221.245L305.062 221.355L307.427 223.361C307.633 223.536 307.859 223.64 308.104 223.66Z" fill="#171717" stroke="#FFF59F" stroke-width="0.341592"/>
<path d="M466.025 319.148C477.365 328.12 493.832 326.2 502.804 314.86C511.776 303.52 509.857 287.054 498.517 278.082C487.177 269.109 470.711 271.029 461.738 282.369C452.766 293.709 454.685 310.175 466.025 319.148Z" fill="black"/>
<path d="M502.8 307.871C493.406 319.745 476.215 321.679 464.417 312.345C452.621 303.012 450.549 285.836 459.943 273.963C469.337 262.09 486.529 260.155 498.326 269.488C510.123 278.822 512.194 295.999 502.8 307.871Z" fill="#1DA867" stroke="black" stroke-width="0.760341"/>
<path d="M480.286 278.276L489.165 285.301L483.191 307.256L476.882 302.265L477.916 298.509L470.019 292.261L466.602 294.131L460.294 289.14L480.286 278.276ZM481.257 286.172L475.18 289.483L479.433 292.848L481.257 286.172Z" fill="#171717"/>
<path d="M491.651 297.1C491.771 297.427 492.001 297.705 492.32 297.94C492.853 298.351 493.78 298.73 495.065 299.087C495.979 299.341 496.984 299.506 498.079 299.585L496.637 304.778C495.401 304.67 494.108 304.429 492.757 304.054C489.358 303.11 487.087 301.959 485.89 300.627C484.653 299.241 484.328 297.42 484.969 295.112L486.388 290.004L486.453 289.77L486.219 289.704L482.43 288.652L483.877 283.445L487.666 284.498L487.9 284.563L487.965 284.328L488.701 281.682L495.496 282.145L494.393 286.114L494.328 286.349L494.562 286.414L501.225 288.265L499.778 293.472L493.116 291.621L492.881 291.555L492.816 291.79L491.634 296.047C491.531 296.417 491.531 296.772 491.651 297.1Z" fill="#171717" stroke="#FFF59F" stroke-width="0.486618"/>
<path d="M759.962 268.131C779.554 273.663 799.921 262.265 805.453 242.673C810.984 223.081 799.587 202.714 779.995 197.182C760.403 191.651 740.036 203.048 734.504 222.64C728.972 242.232 740.37 262.599 759.962 268.131Z" fill="black"/>
<path d="M801.671 233.589C795.879 254.102 774.578 265.912 754.196 260.157C733.815 254.403 721.836 233.195 727.628 212.682C733.42 192.17 754.722 180.359 775.103 186.114C795.485 191.869 807.463 213.076 801.671 233.589Z" fill="#1DA867" stroke="black" stroke-width="1.07045"/>
<path d="M756.404 207.29L771.743 211.622L775.847 243.391L764.949 240.314L764.262 234.873L750.619 231.02L747.188 235.299L736.289 232.222L756.404 207.29ZM761.935 217.03L755.825 224.619L763.172 226.693L761.935 217.03Z" fill="#171717"/>
<path d="M781.354 225.615C781.686 225.975 782.136 226.212 782.678 226.344C783.593 226.591 785.003 226.582 786.867 226.351C788.191 226.187 789.587 225.859 791.054 225.369L791.986 232.9C790.321 233.428 788.51 233.814 786.551 234.056C781.622 234.666 778.048 234.398 775.772 233.314C773.415 232.181 772.008 229.989 771.593 226.643L770.676 219.236L770.634 218.896L770.294 218.938L764.8 219.618L763.866 212.067L769.36 211.387L769.7 211.345L769.658 211.005L769.182 207.167L778.266 204.096L778.979 209.851L779.021 210.191L779.361 210.149L789.022 208.953L789.957 216.504L780.295 217.7L779.956 217.742L779.998 218.082L780.762 224.254C780.828 224.792 781.02 225.253 781.354 225.615Z" fill="#171717" stroke="#FFF59F" stroke-width="0.68509"/>
<path d="M616.356 221.517C633.505 226.359 651.332 216.383 656.174 199.234C661.016 182.085 651.04 164.258 633.891 159.416C616.742 154.574 598.915 164.55 594.073 181.699C589.231 198.848 599.207 216.675 616.356 221.517Z" fill="black"/>
<path d="M652.863 191.283C647.794 209.238 629.148 219.575 611.308 214.538C593.469 209.501 582.983 190.938 588.053 172.983C593.123 155.028 611.768 144.691 629.608 149.728C647.448 154.765 657.933 173.328 652.863 191.283Z" fill="#1DA867" stroke="black" stroke-width="0.936966"/>
<path d="M613.241 168.264L626.667 172.055L630.26 199.863L620.72 197.17L620.12 192.407L608.177 189.035L605.174 192.78L595.634 190.087L613.241 168.264ZM618.082 176.789L612.735 183.432L619.165 185.248L618.082 176.789Z" fill="#171717"/>
<path d="M635.081 184.303C635.372 184.618 635.766 184.826 636.24 184.941C637.041 185.158 638.275 185.149 639.906 184.947C641.066 184.804 642.288 184.517 643.571 184.088L644.387 190.68C642.93 191.142 641.345 191.479 639.63 191.692C635.316 192.226 632.188 191.991 630.195 191.042C628.132 190.051 626.9 188.132 626.538 185.203L625.735 178.719L625.698 178.422L625.401 178.459L620.592 179.054L619.773 172.445L624.582 171.85L624.88 171.813L624.843 171.515L624.427 168.156L632.378 165.467L633.002 170.505L633.039 170.803L633.336 170.766L641.793 169.719L642.611 176.328L634.154 177.375L633.857 177.412L633.894 177.709L634.563 183.112C634.621 183.583 634.789 183.986 635.081 184.303Z" fill="#171717" stroke="#FFF59F" stroke-width="0.599658"/>
<path d="M775.316 92.9524C781.991 100.6 793.601 101.389 801.249 94.7145C808.897 88.04 809.685 76.4296 803.011 68.7819C796.337 61.1342 784.726 60.3453 777.078 67.0198C769.431 73.6943 768.642 85.3047 775.316 92.9524Z" fill="black"/>
<path d="M802.146 89.8917C794.139 96.8799 782.026 96.0086 775.082 88.0526C768.139 80.0968 768.914 67.9772 776.921 60.9889C784.929 54.0008 797.042 54.8721 803.985 62.8279C810.929 70.7838 810.153 82.9035 802.146 89.8917Z" fill="#1DA867" stroke="black" stroke-width="0.533737"/>
<path d="M790.407 66.5757L795.632 72.5633L788.691 86.9486L784.978 82.6942L786.174 80.2349L781.526 74.9091L778.928 75.7612L775.215 71.5069L790.407 66.5757ZM790.063 72.1496L785.444 73.6546L787.947 76.5224L790.063 72.1496Z" fill="#171717"/>
<path d="M795.836 81.0282C795.877 81.2688 796 81.4905 796.19 81.6933C796.505 82.0459 797.096 82.4259 797.937 82.8373C798.535 83.1297 799.208 83.3731 799.954 83.5682L798.291 86.967C797.452 86.7338 796.591 86.4014 795.707 85.969C793.482 84.881 792.063 83.7951 791.407 82.7225C790.732 81.6074 790.741 80.3086 791.48 78.7982L793.115 75.4551L793.19 75.3017L793.036 75.2267L790.557 74.0139L792.224 70.6062L794.703 71.819L794.857 71.894L794.932 71.7406L795.779 70.0084L800.409 71.2004L799.139 73.7982L799.064 73.9516L799.217 74.0266L803.577 76.1592L801.911 79.567L797.55 77.4343L797.397 77.3593L797.322 77.5127L795.959 80.2986C795.84 80.5413 795.795 80.7861 795.836 81.0282Z" fill="#171717" stroke="#FFF59F" stroke-width="0.341592"/>
</svg>
