<svg width="16" height="16" viewBox="0 0 16 16" fill="none" xmlns="http://www.w3.org/2000/svg">
<rect width="16" height="16" rx="3.33333" fill="#EEF3F7"/>
<g clip-path="url(#clip0_227_20539)">
<path fill-rule="evenodd" clip-rule="evenodd" d="M7.70665 10.4063H9.18369C9.6889 10.4063 10.1331 10.3126 10.5164 10.1254C10.8996 9.93809 11.198 9.67459 11.4114 9.3349C11.6291 8.99084 11.738 8.58581 11.738 8.11981C11.738 7.64945 11.6291 7.24442 11.4114 6.90471C11.198 6.56501 10.8996 6.30153 10.5164 6.11425C10.1331 5.92698 9.6889 5.83334 9.18369 5.83334H9.14694L8.82182 6.86552H9.13145C9.39276 6.86552 9.61921 6.9156 9.81083 7.01577C10.0068 7.11159 10.1592 7.25313 10.2681 7.4404C10.377 7.62767 10.4314 7.85414 10.4314 8.11981C10.4314 8.38112 10.377 8.60759 10.2681 8.79922C10.1592 8.98649 10.0068 9.13019 9.81083 9.23036C9.61921 9.3262 9.39276 9.37411 9.13145 9.37411H8.31483V8.4752L7.70665 10.4063ZM12.0951 7.08051V10.3106H13.3886V7.08051H12.0951ZM7.38802 10.4068H6.28079L7.77722 5.83383H8.87093L7.38802 10.4068ZM5.75484 5.83383L6.55857 8.39738L5.95305 10.2478L5.12701 7.62176L4.21309 10.4068H3.07303L3.27398 9.79267L3.60593 8.77828L4.5329 5.9456L4.52919 5.94439L4.56586 5.83383H5.75484ZM3.41962 8.18716L2.6779 5.83383H1.34521L2.76102 10.1998L3.41962 8.18716Z" fill="#2A2E2F"/>
<path fill-rule="evenodd" clip-rule="evenodd" d="M14.7698 6.85994L14.7811 5.83334H9.19221L8.8584 6.85994H14.7698Z" fill="url(#paint0_linear_227_20539)"/>
</g>
<defs>
<linearGradient id="paint0_linear_227_20539" x1="8.84714" y1="6.32972" x2="14.7811" y2="6.32972" gradientUnits="userSpaceOnUse">
<stop offset="0.46" stop-color="#2A2E2F"/>
<stop offset="1" stop-color="#16837C"/>
</linearGradient>
<clipPath id="clip0_227_20539">
<rect width="13.4524" height="4.5935" fill="white" transform="translate(1.34521 5.83334)"/>
</clipPath>
</defs>
</svg>
