<svg width="288" height="62" viewBox="0 0 288 62" fill="none" xmlns="http://www.w3.org/2000/svg">
<path d="M2.07007 55.0944C1.20821 54.664 0.777344 53.588 0.777344 52.5119C0.777344 52.2966 0.777344 51.8663 0.777344 51.6511C0.777344 35.7257 0.777344 19.8003 0.777344 4.09008C0.777344 3.22924 0.992778 2.5837 1.20821 1.72285C1.42377 1.29236 1.85464 0.862002 2.28563 0.431641C11.5504 9.68553 20.5997 18.9394 29.6491 28.1934C20.3843 36.8016 11.335 45.8405 2.07007 55.0944Z" fill="#EEF3F7"/>
<path d="M38.6991 18.7231C36.1136 21.3056 33.3125 23.888 30.7271 26.6858C22.1086 17.8622 13.2747 9.03871 4.65625 0.215181C4.65625 0.215181 4.65625 0 4.87168 0C16.0757 6.24098 27.2797 12.4821 38.6991 18.7231Z" fill="#EEF3F7"/>
<path d="M4.65625 55.0935C13.2747 46.4851 22.1086 37.8769 30.7271 29.2686C33.0971 31.6358 35.6827 34.0031 38.4837 36.5856C27.2796 42.8267 16.0757 49.0677 4.87168 55.0935H4.65625Z" fill="#EEF3F7"/>
<path d="M39.997 35.7255C37.196 33.1431 34.6106 30.5605 31.8096 27.9781C34.6106 25.1804 37.4116 22.3827 40.2125 19.585C41.0743 20.0153 41.9362 20.4458 42.7981 21.0914C44.9526 22.3827 47.3228 23.4587 49.4774 24.7499C50.1238 24.9651 50.5547 25.3956 50.9855 26.0411C51.8474 27.1172 51.8474 28.1933 50.9855 29.2693C50.5547 29.6997 50.1238 30.1302 49.4774 30.3454C46.4609 32.2822 43.229 34.0039 39.997 35.7255Z" fill="#EEF3F7"/>
<path d="M80.2454 17.6719V2.92287H85.9429C87.4622 2.92287 88.7594 3.18804 89.8344 3.71837C90.9094 4.23437 91.7336 5.03704 92.3069 6.12637C92.8946 7.20137 93.1884 8.59171 93.1884 10.2974C93.1884 11.9887 92.8946 13.379 92.3069 14.4684C91.7336 15.5577 90.9094 16.3675 89.8344 16.8979C88.7594 17.4139 87.4622 17.6719 85.9429 17.6719H80.2454ZM82.6534 15.6079H85.9214C86.6811 15.6079 87.3547 15.5075 87.9424 15.3069C88.5444 15.1062 89.0461 14.798 89.4474 14.3824C89.8631 13.9667 90.1712 13.4435 90.3719 12.8129C90.5869 12.1679 90.6944 11.4082 90.6944 10.5339V10.0824C90.6944 9.19371 90.5869 8.43404 90.3719 7.80337C90.1712 7.15837 89.8631 6.62804 89.4474 6.21237C89.0461 5.79671 88.5444 5.48854 87.9424 5.28787C87.3547 5.08721 86.6811 4.98687 85.9214 4.98687H82.6534V15.6079ZM100.486 17.9299C99.3111 17.9299 98.315 17.722 97.498 17.3064C96.6953 16.8764 96.0861 16.2242 95.6705 15.3499C95.2691 14.4755 95.0685 13.3647 95.0685 12.0174C95.0685 10.6557 95.2691 9.54487 95.6705 8.68487C96.0861 7.81054 96.6953 7.16554 97.498 6.74987C98.315 6.31987 99.3111 6.10487 100.486 6.10487C101.69 6.10487 102.694 6.31987 103.496 6.74987C104.299 7.16554 104.901 7.81054 105.302 8.68487C105.718 9.54487 105.926 10.6557 105.926 12.0174C105.926 13.3647 105.718 14.4755 105.302 15.3499C104.901 16.2242 104.299 16.8764 103.496 17.3064C102.694 17.722 101.69 17.9299 100.486 17.9299ZM100.486 16.0809C101.203 16.0809 101.791 15.9447 102.249 15.6724C102.708 15.3857 103.045 14.9557 103.26 14.3824C103.489 13.809 103.604 13.0852 103.604 12.2109V11.8239C103.604 10.9495 103.489 10.2257 103.26 9.65237C103.045 9.07904 102.708 8.65621 102.249 8.38387C101.791 8.09721 101.203 7.95387 100.486 7.95387C99.7841 7.95387 99.2036 8.09721 98.745 8.38387C98.2863 8.65621 97.9423 9.07904 97.713 9.65237C97.498 10.2257 97.3905 10.9495 97.3905 11.8239V12.2109C97.3905 13.0852 97.498 13.809 97.713 14.3824C97.9423 14.9557 98.2863 15.3857 98.745 15.6724C99.2036 15.9447 99.7841 16.0809 100.486 16.0809ZM110.27 17.6719L106.873 6.36287H109.195L110.851 12.5549C110.937 12.8559 111.008 13.1712 111.066 13.5009C111.137 13.8305 111.202 14.1244 111.259 14.3824C111.316 14.6404 111.359 14.8195 111.388 14.9199H111.517C111.574 14.6619 111.639 14.368 111.711 14.0384C111.782 13.7087 111.847 13.4077 111.904 13.1354C111.961 12.8487 112.004 12.6337 112.033 12.4904L113.538 6.36287H115.946L117.494 12.5119C117.551 12.7412 117.609 13.0064 117.666 13.3074C117.738 13.594 117.802 13.8807 117.86 14.1674C117.931 14.454 117.981 14.7049 118.01 14.9199H118.139C118.182 14.7192 118.232 14.4827 118.29 14.2104C118.361 13.9237 118.433 13.637 118.505 13.3504C118.576 13.0637 118.641 12.7985 118.698 12.5549L120.332 6.36287H122.461L119.085 17.6719H116.763L115.387 12.0389C115.33 11.7665 115.258 11.4512 115.172 11.0929C115.086 10.7345 115.007 10.3762 114.936 10.0179C114.864 9.65954 114.807 9.34421 114.764 9.07187H114.635C114.606 9.22954 114.563 9.45887 114.506 9.75987C114.463 10.0609 114.398 10.4049 114.312 10.7919C114.226 11.1789 114.126 11.5945 114.011 12.0389L112.592 17.6719H110.27ZM124.078 17.6719V6.36287H125.927L126.121 7.97537H126.271C126.544 7.55971 126.866 7.21571 127.239 6.94337C127.611 6.67104 128.02 6.46321 128.464 6.31988C128.923 6.17654 129.425 6.10487 129.969 6.10487C130.686 6.10487 131.317 6.23387 131.861 6.49187C132.406 6.73554 132.829 7.13687 133.13 7.69587C133.445 8.25487 133.603 9.00737 133.603 9.95337V17.6719H131.367V10.2974C131.367 9.86737 131.309 9.50904 131.195 9.22237C131.094 8.93571 130.944 8.70637 130.743 8.53437C130.543 8.36237 130.306 8.24054 130.034 8.16887C129.761 8.09721 129.46 8.06137 129.131 8.06137C128.615 8.06137 128.142 8.19037 127.712 8.44837C127.296 8.69204 126.959 9.03604 126.701 9.48037C126.443 9.92471 126.314 10.4479 126.314 11.0499V17.6719H124.078ZM136.403 17.6719V2.12737H138.639V17.6719H136.403ZM146.342 17.9299C145.167 17.9299 144.17 17.722 143.353 17.3064C142.551 16.8764 141.942 16.2242 141.526 15.3499C141.125 14.4755 140.924 13.3647 140.924 12.0174C140.924 10.6557 141.125 9.54487 141.526 8.68487C141.942 7.81054 142.551 7.16554 143.353 6.74987C144.17 6.31987 145.167 6.10487 146.342 6.10487C147.546 6.10487 148.549 6.31987 149.352 6.74987C150.155 7.16554 150.757 7.81054 151.158 8.68487C151.574 9.54487 151.781 10.6557 151.781 12.0174C151.781 13.3647 151.574 14.4755 151.158 15.3499C150.757 16.2242 150.155 16.8764 149.352 17.3064C148.549 17.722 147.546 17.9299 146.342 17.9299ZM146.342 16.0809C147.059 16.0809 147.646 15.9447 148.105 15.6724C148.564 15.3857 148.9 14.9557 149.115 14.3824C149.345 13.809 149.459 13.0852 149.459 12.2109V11.8239C149.459 10.9495 149.345 10.2257 149.115 9.65237C148.9 9.07904 148.564 8.65621 148.105 8.38387C147.646 8.09721 147.059 7.95387 146.342 7.95387C145.64 7.95387 145.059 8.09721 144.6 8.38387C144.142 8.65621 143.798 9.07904 143.568 9.65237C143.353 10.2257 143.246 10.9495 143.246 11.8239V12.2109C143.246 13.0852 143.353 13.809 143.568 14.3824C143.798 14.9557 144.142 15.3857 144.6 15.6724C145.059 15.9447 145.64 16.0809 146.342 16.0809ZM156.92 17.9299C156.562 17.9299 156.175 17.8869 155.759 17.8009C155.343 17.7149 154.949 17.5572 154.577 17.3279C154.218 17.0985 153.924 16.7832 153.695 16.3819C153.466 15.9662 153.351 15.4287 153.351 14.7694C153.351 13.9954 153.53 13.3575 153.889 12.8559C154.247 12.3542 154.749 11.96 155.394 11.6734C156.039 11.3867 156.805 11.186 157.694 11.0714C158.597 10.9567 159.579 10.8994 160.64 10.8994V9.78137C160.64 9.40871 160.575 9.07904 160.446 8.79237C160.331 8.50571 160.109 8.28354 159.78 8.12587C159.464 7.96821 159.006 7.88937 158.404 7.88937C157.802 7.88937 157.329 7.96821 156.985 8.12587C156.655 8.26921 156.418 8.45554 156.275 8.68487C156.146 8.89987 156.082 9.13637 156.082 9.39437V9.71687H153.932C153.917 9.64521 153.91 9.57354 153.91 9.50187C153.91 9.43021 153.91 9.34421 153.91 9.24387C153.91 8.57021 154.096 8.00404 154.469 7.54537C154.856 7.07237 155.394 6.71404 156.082 6.47037C156.77 6.22671 157.565 6.10487 158.468 6.10487C159.443 6.10487 160.253 6.24821 160.898 6.53487C161.557 6.80721 162.051 7.20137 162.381 7.71737C162.711 8.23337 162.876 8.85687 162.876 9.58787V15.3284C162.876 15.6007 162.94 15.7942 163.069 15.9089C163.212 16.0235 163.377 16.0809 163.564 16.0809H164.338V17.5859C164.166 17.6575 163.951 17.7292 163.693 17.8009C163.435 17.8725 163.134 17.9084 162.79 17.9084C162.403 17.9084 162.073 17.8367 161.801 17.6934C161.543 17.5644 161.328 17.378 161.156 17.1344C160.998 16.8764 160.89 16.5897 160.833 16.2744H160.704C160.446 16.604 160.131 16.8979 159.758 17.1559C159.4 17.3995 158.984 17.5859 158.511 17.7149C158.038 17.8582 157.508 17.9299 156.92 17.9299ZM157.544 16.0809C157.988 16.0809 158.396 16.0164 158.769 15.8874C159.156 15.744 159.486 15.5505 159.758 15.3069C160.03 15.0489 160.245 14.7479 160.403 14.4039C160.561 14.0455 160.64 13.6585 160.64 13.2429V12.4904C159.651 12.4904 158.783 12.5477 158.038 12.6624C157.293 12.777 156.712 12.992 156.297 13.3074C155.881 13.6084 155.673 14.0312 155.673 14.5759C155.673 14.9055 155.745 15.185 155.888 15.4144C156.031 15.6294 156.246 15.7942 156.533 15.9089C156.82 16.0235 157.157 16.0809 157.544 16.0809ZM169.773 17.9299C168.856 17.9299 168.06 17.722 167.386 17.3064C166.713 16.8907 166.19 16.2457 165.817 15.3714C165.459 14.497 165.279 13.3647 165.279 11.9744C165.279 10.6127 165.466 9.50187 165.838 8.64187C166.211 7.78187 166.727 7.14404 167.386 6.72837C168.046 6.31271 168.805 6.10487 169.665 6.10487C170.167 6.10487 170.633 6.16221 171.063 6.27687C171.493 6.39154 171.873 6.57071 172.202 6.81438C172.546 7.05804 172.833 7.36621 173.062 7.73887H173.213V2.12737H175.449V17.6719H173.621L173.406 16.1239H173.256C172.883 16.7259 172.389 17.1774 171.772 17.4784C171.17 17.7794 170.504 17.9299 169.773 17.9299ZM170.396 15.9949C171.056 15.9949 171.586 15.8515 171.987 15.5649C172.403 15.2639 172.711 14.8339 172.912 14.2749C173.113 13.7015 173.213 13.0064 173.213 12.1894V11.8884C173.213 11.2004 173.148 10.6127 173.019 10.1254C172.89 9.63804 172.704 9.24387 172.46 8.94287C172.217 8.62754 171.923 8.39821 171.579 8.25487C171.235 8.11154 170.848 8.03987 170.418 8.03987C169.759 8.03987 169.221 8.17604 168.805 8.44837C168.39 8.70637 168.082 9.11487 167.881 9.67387C167.695 10.2329 167.601 10.9567 167.601 11.8454V12.2324C167.601 13.121 167.702 13.8449 167.902 14.4039C168.103 14.9485 168.404 15.3499 168.805 15.6079C169.221 15.8659 169.751 15.9949 170.396 15.9949ZM187.557 17.9299C186.382 17.9299 185.386 17.722 184.569 17.3064C183.766 16.8764 183.157 16.2242 182.741 15.3499C182.34 14.4755 182.139 13.3647 182.139 12.0174C182.139 10.6557 182.34 9.54487 182.741 8.68487C183.157 7.81054 183.766 7.16554 184.569 6.74987C185.386 6.31987 186.382 6.10487 187.557 6.10487C188.761 6.10487 189.765 6.31987 190.567 6.74987C191.37 7.16554 191.972 7.81054 192.373 8.68487C192.789 9.54487 192.997 10.6557 192.997 12.0174C192.997 13.3647 192.789 14.4755 192.373 15.3499C191.972 16.2242 191.37 16.8764 190.567 17.3064C189.765 17.722 188.761 17.9299 187.557 17.9299ZM187.557 16.0809C188.274 16.0809 188.862 15.9447 189.32 15.6724C189.779 15.3857 190.116 14.9557 190.331 14.3824C190.56 13.809 190.675 13.0852 190.675 12.2109V11.8239C190.675 10.9495 190.56 10.2257 190.331 9.65237C190.116 9.07904 189.779 8.65621 189.32 8.38387C188.862 8.09721 188.274 7.95387 187.557 7.95387C186.855 7.95387 186.274 8.09721 185.816 8.38387C185.357 8.65621 185.013 9.07904 184.784 9.65237C184.569 10.2257 184.461 10.9495 184.461 11.8239V12.2109C184.461 13.0852 184.569 13.809 184.784 14.3824C185.013 14.9557 185.357 15.3857 185.816 15.6724C186.274 15.9447 186.855 16.0809 187.557 16.0809ZM195.276 17.6719V6.36287H197.125L197.318 7.97537H197.469C197.741 7.55971 198.064 7.21571 198.436 6.94337C198.809 6.67104 199.218 6.46321 199.662 6.31988C200.121 6.17654 200.622 6.10487 201.167 6.10487C201.884 6.10487 202.514 6.23387 203.059 6.49187C203.604 6.73554 204.026 7.13687 204.327 7.69587C204.643 8.25487 204.8 9.00737 204.8 9.95337V17.6719H202.564V10.2974C202.564 9.86737 202.507 9.50904 202.392 9.22237C202.292 8.93571 202.142 8.70637 201.941 8.53437C201.74 8.36237 201.504 8.24054 201.231 8.16887C200.959 8.09721 200.658 8.06137 200.328 8.06137C199.812 8.06137 199.339 8.19037 198.909 8.44837C198.494 8.69204 198.157 9.03604 197.899 9.48037C197.641 9.92471 197.512 10.4479 197.512 11.0499V17.6719H195.276ZM214.826 17.9299C214.181 17.9299 213.673 17.808 213.3 17.5644C212.942 17.3064 212.684 16.9839 212.526 16.5969C212.383 16.1955 212.311 15.7727 212.311 15.3284V8.21187H210.892V6.36287H212.354L212.762 3.20237H214.547V6.36287H216.589V8.21187H214.547V15.0704C214.547 15.4 214.619 15.6509 214.762 15.8229C214.905 15.9949 215.142 16.0809 215.471 16.0809H216.589V17.5859C216.446 17.6432 216.267 17.6934 216.052 17.7364C215.851 17.7937 215.643 17.8367 215.428 17.8654C215.213 17.9084 215.013 17.9299 214.826 17.9299ZM218.561 17.6719V2.12737H220.797V7.71737H220.947C221.219 7.37337 221.528 7.08671 221.872 6.85737C222.216 6.61371 222.603 6.42737 223.033 6.29837C223.463 6.16937 223.936 6.10487 224.452 6.10487C225.168 6.10487 225.799 6.23387 226.344 6.49187C226.888 6.73554 227.311 7.13687 227.612 7.69587C227.927 8.25487 228.085 9.00737 228.085 9.95337V17.6719H225.849V10.2974C225.849 9.86737 225.792 9.50904 225.677 9.22237C225.577 8.93571 225.426 8.70637 225.226 8.53437C225.025 8.36237 224.788 8.24054 224.516 8.16887C224.244 8.09721 223.943 8.06137 223.613 8.06137C223.097 8.06137 222.624 8.18321 222.194 8.42687C221.778 8.67054 221.442 9.01454 221.184 9.45887C220.926 9.90321 220.797 10.4335 220.797 11.0499V17.6719H218.561ZM235.572 17.9299C234.411 17.9299 233.437 17.722 232.648 17.3064C231.874 16.8764 231.287 16.2242 230.885 15.3499C230.484 14.4755 230.283 13.3647 230.283 12.0174C230.283 10.6557 230.484 9.54487 230.885 8.68487C231.287 7.81054 231.881 7.16554 232.67 6.74987C233.458 6.31987 234.44 6.10487 235.615 6.10487C236.69 6.10487 237.586 6.31271 238.303 6.72837C239.034 7.12971 239.586 7.74604 239.958 8.57737C240.331 9.40871 240.517 10.455 240.517 11.7164V12.5764H232.584C232.612 13.379 232.734 14.0527 232.949 14.5974C233.164 15.1277 233.487 15.5219 233.917 15.7799C234.361 16.0235 234.92 16.1454 235.594 16.1454C236.009 16.1454 236.382 16.0952 236.712 15.9949C237.041 15.8802 237.321 15.7225 237.55 15.5219C237.78 15.3069 237.959 15.056 238.088 14.7694C238.217 14.4684 238.281 14.1315 238.281 13.7589H240.474C240.474 14.4325 240.36 15.0274 240.13 15.5434C239.901 16.0594 239.564 16.4965 239.12 16.8549C238.69 17.1989 238.174 17.464 237.572 17.6504C236.97 17.8367 236.303 17.9299 235.572 17.9299ZM232.627 10.9424H238.174C238.174 10.3834 238.109 9.91754 237.98 9.54487C237.866 9.15787 237.694 8.84254 237.464 8.59887C237.235 8.35521 236.963 8.18321 236.647 8.08287C236.332 7.96821 235.974 7.91087 235.572 7.91087C234.97 7.91087 234.454 8.01837 234.024 8.23337C233.609 8.44837 233.286 8.78521 233.057 9.24387C232.827 9.68821 232.684 10.2544 232.627 10.9424Z" fill="#EEF3F7"/>
<path d="M93.888 55.0296C89.7995 55.0296 86.6515 53.951 84.4442 51.7939C82.2619 49.6367 81.1708 46.263 81.1708 41.6727C81.1708 38.6627 81.685 36.1795 82.7134 34.223C83.7418 32.2414 85.2343 30.7615 87.1908 29.7832C89.1473 28.805 91.5302 28.3159 94.3395 28.3159C96.0201 28.3159 97.5753 28.504 99.005 28.8802C100.46 29.2565 101.727 29.8334 102.805 30.611C103.909 31.3635 104.749 32.3167 105.326 33.4705C105.928 34.6243 106.229 35.9914 106.229 37.5716H101.94C101.94 36.5934 101.739 35.7531 101.338 35.0507C100.962 34.3233 100.422 33.7213 99.7199 33.2447C99.0427 32.7682 98.24 32.4295 97.3119 32.2289C96.4089 32.0031 95.4432 31.8902 94.4148 31.8902C92.985 31.8902 91.7058 32.0784 90.577 32.4546C89.4734 32.8309 88.5453 33.4078 87.7928 34.1854C87.0403 34.963 86.4759 35.9412 86.0997 37.1201C85.7234 38.299 85.5353 39.6912 85.5353 41.2965V42.0866C85.5353 44.294 85.8488 46.0874 86.4759 47.467C87.1281 48.8466 88.0812 49.8625 89.3354 50.5146C90.6147 51.1417 92.1698 51.4552 94.0009 51.4552C95.7317 51.4552 97.1865 51.2044 98.3654 50.7027C99.5443 50.2011 100.447 49.4611 101.074 48.4829C101.701 47.4795 102.015 46.2379 102.015 44.758V44.3817H93.3237V40.8826H106.229V54.5781H103.181L102.768 51.4929C102.065 52.3206 101.263 52.9979 100.36 53.5246C99.4565 54.0263 98.4657 54.4025 97.3872 54.6534C96.3337 54.9042 95.1673 55.0296 93.888 55.0296ZM119.997 55.0296C117.94 55.0296 116.197 54.6659 114.767 53.9385C113.362 53.186 112.296 52.0447 111.569 50.5146C110.867 48.9845 110.515 47.0406 110.515 44.6827C110.515 42.2998 110.867 40.3559 111.569 38.8509C112.296 37.3208 113.362 36.192 114.767 35.4646C116.197 34.7121 117.94 34.3359 119.997 34.3359C122.104 34.3359 123.86 34.7121 125.264 35.4646C126.669 36.192 127.723 37.3208 128.425 38.8509C129.152 40.3559 129.516 42.2998 129.516 44.6827C129.516 47.0406 129.152 48.9845 128.425 50.5146C127.723 52.0447 126.669 53.186 125.264 53.9385C123.86 54.6659 122.104 55.0296 119.997 55.0296ZM119.997 51.7939C121.251 51.7939 122.279 51.5556 123.082 51.079C123.885 50.5773 124.474 49.8248 124.85 48.8215C125.252 47.8182 125.452 46.5515 125.452 45.0214V44.3441C125.452 42.814 125.252 41.5473 124.85 40.544C124.474 39.5407 123.885 38.8007 123.082 38.3241C122.279 37.8225 121.251 37.5716 119.997 37.5716C118.768 37.5716 117.752 37.8225 116.949 38.3241C116.147 38.8007 115.545 39.5407 115.143 40.544C114.767 41.5473 114.579 42.814 114.579 44.3441V45.0214C114.579 46.5515 114.767 47.8182 115.143 48.8215C115.545 49.8248 116.147 50.5773 116.949 51.079C117.752 51.5556 118.768 51.7939 119.997 51.7939ZM141.933 55.0296C139.876 55.0296 138.132 54.6659 136.703 53.9385C135.298 53.186 134.232 52.0447 133.505 50.5146C132.802 48.9845 132.451 47.0406 132.451 44.6827C132.451 42.2998 132.802 40.3559 133.505 38.8509C134.232 37.3208 135.298 36.192 136.703 35.4646C138.132 34.7121 139.876 34.3359 141.933 34.3359C144.04 34.3359 145.795 34.7121 147.2 35.4646C148.605 36.192 149.658 37.3208 150.361 38.8509C151.088 40.3559 151.452 42.2998 151.452 44.6827C151.452 47.0406 151.088 48.9845 150.361 50.5146C149.658 52.0447 148.605 53.186 147.2 53.9385C145.795 54.6659 144.04 55.0296 141.933 55.0296ZM141.933 51.7939C143.187 51.7939 144.215 51.5556 145.018 51.079C145.82 50.5773 146.41 49.8248 146.786 48.8215C147.187 47.8182 147.388 46.5515 147.388 45.0214V44.3441C147.388 42.814 147.187 41.5473 146.786 40.544C146.41 39.5407 145.82 38.8007 145.018 38.3241C144.215 37.8225 143.187 37.5716 141.933 37.5716C140.703 37.5716 139.688 37.8225 138.885 38.3241C138.082 38.8007 137.48 39.5407 137.079 40.544C136.703 41.5473 136.515 42.814 136.515 44.3441V45.0214C136.515 46.5515 136.703 47.8182 137.079 48.8215C137.48 49.8248 138.082 50.5773 138.885 51.079C139.688 51.5556 140.703 51.7939 141.933 51.7939ZM158.751 61.4259C157.848 61.4259 156.995 61.2378 156.193 60.8615C155.415 60.4853 154.788 59.946 154.311 59.2436C153.835 58.5413 153.597 57.6885 153.597 56.6851C153.597 55.5815 153.898 54.691 154.5 54.0137C155.127 53.3114 155.854 52.7847 156.682 52.4335C156.08 52.1576 155.591 51.7562 155.214 51.2295C154.863 50.7027 154.688 50.1007 154.688 49.4235C154.688 48.4954 155.026 47.7429 155.704 47.166C156.381 46.5891 157.171 46.2128 158.074 46.0372C157.196 45.4603 156.506 44.7329 156.005 43.855C155.528 42.9771 155.29 41.9863 155.29 40.8826C155.29 39.5532 155.603 38.4119 156.23 37.4587C156.857 36.4805 157.785 35.7155 159.015 35.1636C160.269 34.6118 161.786 34.3359 163.567 34.3359C164.345 34.3359 165.072 34.3986 165.749 34.524C166.452 34.6243 167.079 34.7748 167.631 34.9755C168.509 34.524 169.136 33.9847 169.512 33.3576C169.888 32.7055 170.114 32.1035 170.189 31.5516H174.027C174.027 32.3794 173.851 33.1319 173.5 33.8091C173.174 34.4613 172.71 35.0131 172.108 35.4646C171.531 35.891 170.829 36.192 170.001 36.3676C170.628 36.9445 171.092 37.6218 171.393 38.3994C171.719 39.1519 171.882 39.9796 171.882 40.8826C171.882 42.187 171.581 43.3282 170.979 44.3065C170.377 45.2847 169.462 46.0498 168.233 46.6016C167.029 47.1535 165.536 47.4294 163.755 47.4294H160.67C160.068 47.4294 159.579 47.5548 159.203 47.8056C158.852 48.0565 158.676 48.4327 158.676 48.9344C158.676 49.3608 158.852 49.712 159.203 49.9879C159.554 50.2638 160.018 50.4017 160.595 50.4017H168.948C170.402 50.4017 171.606 50.8909 172.56 51.8691C173.513 52.8223 173.989 54.0514 173.989 55.5564C173.989 56.66 173.701 57.6508 173.124 58.5288C172.572 59.4318 171.782 60.1341 170.754 60.6358C169.75 61.1625 168.584 61.4259 167.254 61.4259H158.751ZM160.03 58.5288H167.217C167.744 58.5288 168.22 58.4284 168.647 58.2278C169.073 58.0271 169.412 57.7386 169.662 57.3624C169.913 57.0112 170.039 56.6099 170.039 56.1584C170.039 55.4059 169.8 54.8164 169.324 54.39C168.872 53.9636 168.308 53.7504 167.631 53.7504H160.03C159.328 53.7504 158.739 53.9887 158.262 54.4652C157.785 54.9168 157.547 55.4811 157.547 56.1584C157.547 56.8607 157.773 57.4251 158.224 57.8515C158.701 58.303 159.303 58.5288 160.03 58.5288ZM163.605 44.6075C165.085 44.6075 166.188 44.2814 166.916 43.6292C167.643 42.952 168.007 42.0365 168.007 40.8826C168.007 39.7037 167.643 38.8007 166.916 38.1736C166.188 37.5215 165.085 37.1954 163.605 37.1954C162.125 37.1954 161.021 37.5215 160.294 38.1736C159.566 38.8007 159.203 39.7037 159.203 40.8826C159.203 41.6351 159.353 42.2998 159.654 42.8767C159.98 43.4286 160.469 43.855 161.122 44.156C161.799 44.457 162.627 44.6075 163.605 44.6075ZM177.008 54.5781V27.3752H180.921V54.5781H177.008ZM194.176 55.0296C192.144 55.0296 190.439 54.6659 189.059 53.9385C187.705 53.186 186.676 52.0447 185.974 50.5146C185.271 48.9845 184.92 47.0406 184.92 44.6827C184.92 42.2998 185.271 40.3559 185.974 38.8509C186.676 37.3208 187.717 36.192 189.097 35.4646C190.476 34.7121 192.194 34.3359 194.251 34.3359C196.133 34.3359 197.7 34.6996 198.954 35.427C200.234 36.1293 201.199 37.2079 201.852 38.6627C202.504 40.1176 202.83 41.9487 202.83 44.156V45.661H188.946C188.996 47.0657 189.21 48.2446 189.586 49.1977C189.962 50.1258 190.526 50.8156 191.279 51.2671C192.056 51.6935 193.035 51.9067 194.214 51.9067C194.941 51.9067 195.593 51.819 196.17 51.6434C196.747 51.4427 197.236 51.1668 197.638 50.8156C198.039 50.4394 198.352 50.0004 198.578 49.4987C198.804 48.972 198.917 48.3825 198.917 47.7304H202.755C202.755 48.9093 202.554 49.9502 202.153 50.8532C201.751 51.7562 201.162 52.5213 200.384 53.1484C199.632 53.7504 198.729 54.2144 197.675 54.5405C196.622 54.8666 195.455 55.0296 194.176 55.0296ZM189.021 42.8015H198.729C198.729 41.8232 198.616 41.008 198.39 40.3559C198.189 39.6786 197.888 39.1268 197.487 38.7004C197.086 38.274 196.609 37.973 196.057 37.7974C195.505 37.5967 194.878 37.4964 194.176 37.4964C193.123 37.4964 192.22 37.6845 191.467 38.0607C190.74 38.437 190.175 39.0265 189.774 39.8291C189.373 40.6067 189.122 41.5975 189.021 42.8015ZM215.05 54.5781V28.7674H227.918C229.749 28.7674 231.266 29.106 232.47 29.7832C233.674 30.4605 234.577 31.4011 235.179 32.6051C235.806 33.784 236.12 35.1887 236.12 36.8191C236.12 38.4495 235.794 39.8918 235.142 41.146C234.49 42.3751 233.536 43.3282 232.282 44.0055C231.053 44.6827 229.548 45.0214 227.767 45.0214H219.264V54.5781H215.05ZM219.264 41.4094H227.579C228.908 41.4094 229.949 41.008 230.702 40.2054C231.48 39.4027 231.868 38.2865 231.868 36.8567C231.868 35.9036 231.705 35.1009 231.379 34.4487C231.053 33.7715 230.577 33.2573 229.949 32.9061C229.322 32.555 228.532 32.3794 227.579 32.3794H219.264V41.4094ZM239.619 54.5781V27.3752H243.532V54.5781H239.619ZM253.588 55.0296C252.961 55.0296 252.284 54.9544 251.556 54.8039C250.829 54.6534 250.139 54.3775 249.487 53.9761C248.86 53.5748 248.346 53.023 247.944 52.3206C247.543 51.5932 247.342 50.6526 247.342 49.4987C247.342 48.1442 247.656 47.028 248.283 46.1501C248.91 45.2722 249.788 44.5824 250.917 44.0807C252.046 43.5791 253.388 43.2279 254.943 43.0272C256.523 42.8266 258.241 42.7262 260.097 42.7262V40.7697C260.097 40.1176 259.984 39.5407 259.759 39.039C259.558 38.5373 259.169 38.1485 258.592 37.8726C258.041 37.5967 257.238 37.4587 256.184 37.4587C255.131 37.4587 254.303 37.5967 253.701 37.8726C253.124 38.1235 252.71 38.4495 252.459 38.8509C252.234 39.2271 252.121 39.641 252.121 40.0925V40.6569H248.358C248.333 40.5315 248.321 40.406 248.321 40.2806C248.321 40.1552 248.321 40.0047 248.321 39.8291C248.321 38.6502 248.647 37.6594 249.299 36.8567C249.976 36.029 250.917 35.4019 252.121 34.9755C253.325 34.5491 254.717 34.3359 256.297 34.3359C258.003 34.3359 259.42 34.5867 260.549 35.0884C261.703 35.565 262.568 36.2547 263.145 37.1577C263.722 38.0607 264.01 39.1519 264.01 40.4311V50.477C264.01 50.9536 264.123 51.2922 264.349 51.4929C264.6 51.6935 264.888 51.7939 265.214 51.7939H266.569V54.4276C266.268 54.553 265.892 54.6785 265.44 54.8039C264.989 54.9293 264.462 54.992 263.86 54.992C263.183 54.992 262.606 54.8666 262.129 54.6158C261.678 54.39 261.301 54.0639 261 53.6375C260.724 53.186 260.536 52.6843 260.436 52.1325H260.21C259.759 52.7094 259.207 53.2236 258.555 53.6751C257.928 54.1015 257.2 54.4276 256.372 54.6534C255.545 54.9042 254.617 55.0296 253.588 55.0296ZM254.679 51.7939C255.457 51.7939 256.172 51.681 256.824 51.4552C257.501 51.2044 258.078 50.8658 258.555 50.4394C259.031 49.9879 259.408 49.4611 259.683 48.8591C259.959 48.232 260.097 47.5548 260.097 46.8274V45.5105C258.367 45.5105 256.849 45.6108 255.545 45.8115C254.24 46.0122 253.225 46.3884 252.497 46.9402C251.77 47.467 251.406 48.207 251.406 49.1601C251.406 49.737 251.531 50.2262 251.782 50.6275C252.033 51.0037 252.409 51.2922 252.911 51.4929C253.413 51.6935 254.002 51.7939 254.679 51.7939ZM271.415 61.4259C270.663 61.4259 270.036 61.3632 269.534 61.2378C269.032 61.1374 268.719 61.0747 268.593 61.0496V58.2278H270.475C271.026 58.2278 271.578 58.1023 272.13 57.8515C272.707 57.6007 273.221 57.1993 273.673 56.6475C274.124 56.0957 274.5 55.4059 274.801 54.5781L267.088 34.7874H271.189L275.027 44.6451C275.203 45.0966 275.391 45.661 275.592 46.3382C275.817 47.0155 276.03 47.7053 276.231 48.4076C276.457 49.11 276.645 49.737 276.796 50.2889H276.984C277.109 49.9126 277.234 49.4862 277.36 49.0096C277.51 48.508 277.661 47.9937 277.811 47.467C277.962 46.9402 278.112 46.4386 278.263 45.962C278.413 45.4603 278.539 45.0339 278.639 44.6827L281.837 34.7874H285.826L279.128 53.8256C278.752 54.8791 278.338 55.8699 277.887 56.798C277.435 57.7261 276.908 58.5288 276.306 59.206C275.729 59.9083 275.04 60.4476 274.237 60.8239C273.434 61.2252 272.494 61.4259 271.415 61.4259Z" fill="#EEF3F7"/>
</svg>
