<svg width="32" height="33" viewBox="0 0 32 33" fill="none" xmlns="http://www.w3.org/2000/svg">
<g clip-path="url(#clip0_0_15261)">
<path d="M16 21.5C18.7614 21.5 21 19.2614 21 16.5C21 13.7386 18.7614 11.5 16 11.5C13.2386 11.5 11 13.7386 11 16.5C11 19.2614 13.2386 21.5 16 21.5Z" stroke="#6A7D7F" stroke-width="1.5" stroke-linecap="round" stroke-linejoin="round"/>
<path d="M22 4.5H10C6.68629 4.5 4 7.18629 4 10.5V22.5C4 25.8137 6.68629 28.5 10 28.5H22C25.3137 28.5 28 25.8137 28 22.5V10.5C28 7.18629 25.3137 4.5 22 4.5Z" stroke="#6A7D7F" stroke-width="1.5" stroke-linecap="round" stroke-linejoin="round"/>
<path d="M22.5 11.25C23.1904 11.25 23.75 10.6904 23.75 10C23.75 9.30964 23.1904 8.75 22.5 8.75C21.8096 8.75 21.25 9.30964 21.25 10C21.25 10.6904 21.8096 11.25 22.5 11.25Z" fill="#6A7D7F"/>
</g>
<defs>
<clipPath id="clip0_0_15261">
<rect width="32" height="32" fill="white" transform="translate(0 0.5)"/>
</clipPath>
</defs>
</svg>
