<svg width="288" height="56" viewBox="0 0 288 56" fill="none" xmlns="http://www.w3.org/2000/svg">
<path d="M37.625 0C32.1768 0 26.8508 1.6156 22.3208 4.64248C17.7907 7.66937 14.26 11.9716 12.175 17.0051C10.0901 22.0387 9.54454 27.5774 10.6074 32.921C11.6703 38.2646 14.2939 43.173 18.1464 47.0254C21.9989 50.8779 26.9073 53.5015 32.2509 54.5644C37.5944 55.6273 43.1332 55.0818 48.1667 52.9969C53.2003 50.9119 57.5025 47.3811 60.5294 42.8511C63.5563 38.321 65.1719 32.9951 65.1719 27.5469C65.1635 20.2436 62.2585 13.2418 57.0943 8.07758C51.9301 2.91336 44.9283 0.00841234 37.625 0ZM60.8332 25.4279H50.2833C49.8092 15.7573 46.0851 8.9183 43.0311 4.87368C47.773 6.01241 52.0397 8.60672 55.2327 12.2928C58.4258 15.9789 60.3851 20.572 60.8359 25.4279H60.8332ZM29.21 29.6659H46.04C45.4282 40.6873 40.1519 47.4415 37.625 50.0611C35.0955 47.4389 29.8218 40.6846 29.21 29.6659ZM29.21 25.4279C29.8218 14.4065 35.0981 7.6522 37.625 5.0326C40.1546 7.6628 45.4282 14.4171 46.04 25.4279H29.21ZM43.0311 50.2201C46.0851 46.1754 49.8013 39.3364 50.2833 29.6659H60.8359C60.3851 34.5218 58.4258 39.1148 55.2327 42.8009C52.0397 46.487 47.773 49.0813 43.0311 50.2201Z" fill="#EEF3F7"/>
<path d="M105.764 17.6719L100.324 2.92287H102.926L106.581 13.2214C106.653 13.3934 106.724 13.594 106.796 13.8234C106.868 14.0527 106.939 14.2749 107.011 14.4899C107.083 14.6905 107.147 14.8697 107.204 15.0274H107.312C107.369 14.8697 107.434 14.6905 107.505 14.4899C107.577 14.2892 107.649 14.0814 107.72 13.8664C107.792 13.6514 107.864 13.4435 107.935 13.2429L111.547 2.92287H114.063L108.602 17.6719H105.764ZM115.722 4.40637V2.12737H117.958V4.40637H115.722ZM115.722 17.6719V6.36287H117.958V17.6719H115.722ZM125.016 17.9299C124.228 17.9299 123.533 17.8439 122.931 17.6719C122.329 17.4999 121.827 17.2634 121.426 16.9624C121.024 16.6614 120.716 16.303 120.501 15.8874C120.301 15.4574 120.2 14.9844 120.2 14.4684C120.2 14.3967 120.2 14.3322 120.2 14.2749C120.215 14.2175 120.222 14.1674 120.222 14.1244H122.436C122.436 14.1674 122.436 14.2104 122.436 14.2534C122.436 14.282 122.436 14.3179 122.436 14.3609C122.436 14.8052 122.558 15.1635 122.802 15.4359C123.045 15.6939 123.368 15.8802 123.769 15.9949C124.185 16.0952 124.636 16.1454 125.124 16.1454C125.554 16.1454 125.948 16.0952 126.306 15.9949C126.679 15.8802 126.98 15.7154 127.209 15.5004C127.453 15.2854 127.575 15.013 127.575 14.6834C127.575 14.2534 127.424 13.9237 127.123 13.6944C126.822 13.465 126.428 13.2859 125.941 13.1569C125.453 13.0135 124.945 12.863 124.414 12.7054C123.941 12.5764 123.468 12.4402 122.995 12.2969C122.537 12.1392 122.121 11.9385 121.748 11.6949C121.376 11.4512 121.075 11.143 120.845 10.7704C120.616 10.3977 120.501 9.93187 120.501 9.37287C120.501 8.84254 120.616 8.37671 120.845 7.97537C121.075 7.57404 121.39 7.23721 121.791 6.96487C122.207 6.69254 122.694 6.48471 123.253 6.34137C123.827 6.19804 124.45 6.12637 125.124 6.12637C125.826 6.12637 126.45 6.20521 126.994 6.36287C127.539 6.50621 127.998 6.71404 128.37 6.98637C128.757 7.25871 129.051 7.58837 129.252 7.97537C129.452 8.34804 129.553 8.74937 129.553 9.17937C129.553 9.26537 129.546 9.35854 129.531 9.45887C129.531 9.54487 129.531 9.60221 129.531 9.63087H127.338V9.43737C127.338 9.15071 127.259 8.89271 127.102 8.66337C126.944 8.43404 126.693 8.24771 126.349 8.10437C126.02 7.96104 125.575 7.88937 125.016 7.88937C124.644 7.88937 124.314 7.92521 124.027 7.99687C123.741 8.05421 123.504 8.14021 123.318 8.25487C123.131 8.36954 122.988 8.50571 122.888 8.66337C122.802 8.82104 122.759 9.00021 122.759 9.20087C122.759 9.53054 122.873 9.78854 123.103 9.97487C123.346 10.1469 123.662 10.2974 124.049 10.4264C124.436 10.541 124.851 10.67 125.296 10.8134C125.812 10.9567 126.335 11.1072 126.865 11.2649C127.396 11.4082 127.883 11.5945 128.327 11.8239C128.786 12.0532 129.151 12.3685 129.424 12.7699C129.71 13.1712 129.854 13.7087 129.854 14.3824C129.854 14.9987 129.732 15.5362 129.488 15.9949C129.245 16.4535 128.901 16.8262 128.456 17.1129C128.026 17.3852 127.517 17.5859 126.93 17.7149C126.342 17.8582 125.704 17.9299 125.016 17.9299ZM132.12 4.40637V2.12737H134.356V4.40637H132.12ZM132.12 17.6719V6.36287H134.356V17.6719H132.12ZM140.06 17.9299C139.415 17.9299 138.906 17.808 138.533 17.5644C138.175 17.3064 137.917 16.9839 137.759 16.5969C137.616 16.1955 137.544 15.7727 137.544 15.3284V8.21187H136.125V6.36287H137.587L137.996 3.20237H139.78V6.36287H141.823V8.21187H139.78V15.0704C139.78 15.4 139.852 15.6509 139.995 15.8229C140.139 15.9949 140.375 16.0809 140.705 16.0809H141.823V17.5859C141.679 17.6432 141.5 17.6934 141.285 17.7364C141.085 17.7937 140.877 17.8367 140.662 17.8654C140.447 17.9084 140.246 17.9299 140.06 17.9299ZM153.019 17.9299C151.844 17.9299 150.848 17.722 150.031 17.3064C149.228 16.8764 148.619 16.2242 148.203 15.3499C147.802 14.4755 147.601 13.3647 147.601 12.0174C147.601 10.6557 147.802 9.54487 148.203 8.68487C148.619 7.81054 149.228 7.16554 150.031 6.74987C150.848 6.31987 151.844 6.10487 153.019 6.10487C154.223 6.10487 155.227 6.31987 156.029 6.74987C156.832 7.16554 157.434 7.81054 157.835 8.68487C158.251 9.54487 158.459 10.6557 158.459 12.0174C158.459 13.3647 158.251 14.4755 157.835 15.3499C157.434 16.2242 156.832 16.8764 156.029 17.3064C155.227 17.722 154.223 17.9299 153.019 17.9299ZM153.019 16.0809C153.736 16.0809 154.324 15.9447 154.782 15.6724C155.241 15.3857 155.578 14.9557 155.793 14.3824C156.022 13.809 156.137 13.0852 156.137 12.2109V11.8239C156.137 10.9495 156.022 10.2257 155.793 9.65237C155.578 9.07904 155.241 8.65621 154.782 8.38387C154.324 8.09721 153.736 7.95387 153.019 7.95387C152.317 7.95387 151.736 8.09721 151.278 8.38387C150.819 8.65621 150.475 9.07904 150.246 9.65237C150.031 10.2257 149.923 10.9495 149.923 11.8239V12.2109C149.923 13.0852 150.031 13.809 150.246 14.3824C150.475 14.9557 150.819 15.3857 151.278 15.6724C151.736 15.9447 152.317 16.0809 153.019 16.0809ZM164.285 17.9299C163.196 17.9299 162.315 17.6432 161.641 17.0699C160.967 16.4822 160.63 15.486 160.63 14.0814V6.36287H162.866V13.7374C162.866 14.1674 162.917 14.5257 163.017 14.8124C163.132 15.099 163.289 15.3284 163.49 15.5004C163.691 15.6724 163.927 15.7942 164.199 15.8659C164.472 15.9375 164.773 15.9734 165.102 15.9734C165.618 15.9734 166.084 15.8515 166.5 15.6079C166.93 15.3499 167.274 14.9987 167.532 14.5544C167.79 14.0957 167.919 13.5725 167.919 12.9849V6.36287H170.155V17.6719H168.327L168.134 16.0594H167.983C167.711 16.475 167.389 16.819 167.016 17.0914C166.643 17.3637 166.228 17.5715 165.769 17.7149C165.325 17.8582 164.83 17.9299 164.285 17.9299ZM173.042 17.6719V6.36287H174.891L175.084 8.19037H175.213C175.342 7.83204 175.507 7.49521 175.708 7.17987C175.923 6.86454 176.195 6.60654 176.525 6.40587C176.869 6.20521 177.284 6.10487 177.772 6.10487C178.001 6.10487 178.202 6.12637 178.374 6.16937C178.56 6.21237 178.703 6.24821 178.804 6.27687V8.38387H178.051C177.592 8.38387 177.184 8.45554 176.826 8.59887C176.482 8.74221 176.188 8.95721 175.944 9.24387C175.715 9.51621 175.543 9.85304 175.428 10.2544C175.328 10.6557 175.278 11.1072 175.278 11.6089V17.6719H173.042Z" fill="#EEF3F7"/>
<path d="M107.634 54.5781L100.523 28.7674H105.001L109.403 45.7739C109.478 46.0498 109.566 46.426 109.666 46.9026C109.766 47.3792 109.854 47.8809 109.93 48.4076C110.03 48.9093 110.118 49.3733 110.193 49.7997H110.419C110.494 49.4737 110.557 49.1225 110.607 48.7462C110.657 48.37 110.72 47.9937 110.795 47.6175C110.87 47.2412 110.933 46.8901 110.983 46.564C111.058 46.2379 111.108 45.9745 111.134 45.7739L115.197 28.7674H120.615L124.716 45.7739C124.791 46.0498 124.879 46.426 124.98 46.9026C125.08 47.3792 125.168 47.8809 125.243 48.4076C125.343 48.9093 125.431 49.3733 125.506 49.7997H125.732C125.782 49.4987 125.845 49.1601 125.92 48.7839C125.995 48.4076 126.071 48.0439 126.146 47.6927C126.221 47.3165 126.296 46.9653 126.372 46.6392C126.472 46.3132 126.547 46.0247 126.597 45.7739L131 28.7674H134.988L127.877 54.5781H122.948L118.621 37.3459C118.546 36.9696 118.458 36.5432 118.358 36.0666C118.257 35.565 118.157 35.0633 118.057 34.5616C117.981 34.0349 117.919 33.5834 117.868 33.2071H117.68C117.63 33.6085 117.567 34.0725 117.492 34.5992C117.417 35.126 117.329 35.6402 117.229 36.1419C117.128 36.6185 117.041 37.0198 116.965 37.3459L112.714 54.5781H107.634ZM144.342 55.0296C142.311 55.0296 140.605 54.6659 139.225 53.9385C137.871 53.186 136.842 52.0447 136.14 50.5146C135.438 48.9845 135.087 47.0406 135.087 44.6827C135.087 42.2998 135.438 40.3559 136.14 38.8509C136.842 37.3208 137.883 36.192 139.263 35.4646C140.642 34.7121 142.361 34.3359 144.418 34.3359C146.299 34.3359 147.866 34.6996 149.121 35.427C150.4 36.1293 151.366 37.2079 152.018 38.6627C152.67 40.1176 152.996 41.9487 152.996 44.156V45.661H139.112C139.163 47.0657 139.376 48.2446 139.752 49.1977C140.128 50.1258 140.693 50.8156 141.445 51.2671C142.223 51.6935 143.201 51.9067 144.38 51.9067C145.107 51.9067 145.759 51.819 146.336 51.6434C146.913 51.4427 147.402 51.1668 147.804 50.8156C148.205 50.4394 148.519 50.0004 148.744 49.4987C148.97 48.972 149.083 48.3825 149.083 47.7304H152.921C152.921 48.9093 152.72 49.9502 152.319 50.8532C151.917 51.7562 151.328 52.5213 150.55 53.1484C149.798 53.7504 148.895 54.2144 147.841 54.5405C146.788 54.8666 145.622 55.0296 144.342 55.0296ZM139.188 42.8015H148.895C148.895 41.8232 148.782 41.008 148.556 40.3559C148.356 39.6786 148.055 39.1268 147.653 38.7004C147.252 38.274 146.775 37.973 146.224 37.7974C145.672 37.5967 145.045 37.4964 144.342 37.4964C143.289 37.4964 142.386 37.6845 141.633 38.0607C140.906 38.437 140.341 39.0265 139.94 39.8291C139.539 40.6067 139.288 41.5975 139.188 42.8015ZM166.906 55.0296C165.602 55.0296 164.423 54.7662 163.37 54.2395C162.316 53.7127 161.451 52.9226 160.774 51.8691H160.51L160.172 54.5781H156.973V27.3752H160.886V37.1954H161.112C161.539 36.5432 162.04 36.0039 162.617 35.5775C163.219 35.1511 163.896 34.8375 164.649 34.6369C165.401 34.4362 166.217 34.3359 167.095 34.3359C168.6 34.3359 169.929 34.6996 171.083 35.427C172.237 36.1544 173.127 37.2706 173.754 38.7756C174.406 40.2806 174.732 42.2246 174.732 44.6075C174.732 47.0406 174.419 49.0222 173.792 50.5522C173.165 52.0823 172.262 53.2111 171.083 53.9385C169.929 54.6659 168.537 55.0296 166.906 55.0296ZM165.815 51.6434C166.944 51.6434 167.86 51.4176 168.562 50.9661C169.289 50.5146 169.829 49.8123 170.18 48.8591C170.531 47.8809 170.707 46.6142 170.707 45.059V44.3817C170.707 42.8266 170.531 41.5599 170.18 40.5816C169.854 39.6034 169.327 38.8885 168.6 38.437C167.872 37.9604 166.919 37.7221 165.74 37.7221C165.013 37.7221 164.348 37.8475 163.746 38.0984C163.144 38.3492 162.63 38.7505 162.203 39.3024C161.777 39.8291 161.451 40.5189 161.225 41.3717C160.999 42.2246 160.886 43.253 160.886 44.457V44.9837C160.886 46.4135 161.049 47.63 161.376 48.6334C161.727 49.6116 162.266 50.3641 162.993 50.8909C163.721 51.3925 164.661 51.6434 165.815 51.6434ZM186.061 55.0296C184.682 55.0296 183.465 54.8791 182.412 54.5781C181.358 54.2771 180.48 53.8632 179.778 53.3365C179.076 52.8097 178.536 52.1827 178.16 51.4552C177.809 50.7027 177.633 49.875 177.633 48.972C177.633 48.8466 177.633 48.7337 177.633 48.6334C177.658 48.533 177.671 48.4452 177.671 48.37H181.546C181.546 48.4452 181.546 48.5205 181.546 48.5957C181.546 48.6459 181.546 48.7086 181.546 48.7839C181.546 49.5615 181.76 50.1885 182.186 50.6651C182.612 51.1166 183.177 51.4427 183.879 51.6434C184.607 51.819 185.397 51.9067 186.249 51.9067C187.002 51.9067 187.692 51.819 188.319 51.6434C188.971 51.4427 189.498 51.1542 189.899 50.778C190.326 50.4017 190.539 49.9252 190.539 49.3482C190.539 48.5957 190.275 48.0188 189.749 47.6175C189.222 47.2162 188.532 46.9026 187.679 46.6769C186.826 46.426 185.936 46.1627 185.008 45.8867C184.18 45.661 183.352 45.4227 182.525 45.1719C181.722 44.896 180.995 44.5448 180.342 44.1184C179.69 43.692 179.163 43.1527 178.762 42.5005C178.361 41.8483 178.16 41.0331 178.16 40.0549C178.16 39.1268 178.361 38.3116 178.762 37.6092C179.163 36.9069 179.715 36.3175 180.418 35.8409C181.145 35.3643 181.998 35.0006 182.976 34.7497C183.979 34.4989 185.071 34.3735 186.249 34.3735C187.479 34.3735 188.57 34.5115 189.523 34.7874C190.476 35.0382 191.279 35.4019 191.931 35.8785C192.608 36.3551 193.122 36.932 193.473 37.6092C193.825 38.2614 194 38.9637 194 39.7162C194 39.8667 193.988 40.0298 193.963 40.2054C193.963 40.3559 193.963 40.4562 193.963 40.5064H190.125V40.1677C190.125 39.6661 189.987 39.2146 189.711 38.8132C189.435 38.4119 188.996 38.0858 188.394 37.835C187.817 37.5842 187.04 37.4587 186.061 37.4587C185.409 37.4587 184.832 37.5215 184.331 37.6469C183.829 37.7472 183.415 37.8977 183.089 38.0984C182.763 38.299 182.512 38.5373 182.336 38.8132C182.186 39.0892 182.111 39.4027 182.111 39.7539C182.111 40.3308 182.311 40.7823 182.713 41.1084C183.139 41.4094 183.691 41.6727 184.368 41.8985C185.045 42.0992 185.773 42.3249 186.55 42.5757C187.453 42.8266 188.369 43.09 189.297 43.3659C190.225 43.6167 191.078 43.9428 191.856 44.3441C192.658 44.7455 193.298 45.2973 193.774 45.9996C194.276 46.702 194.527 47.6426 194.527 48.8215C194.527 49.9001 194.314 50.8407 193.887 51.6434C193.461 52.446 192.859 53.0982 192.081 53.5999C191.329 54.0765 190.438 54.4276 189.41 54.6534C188.382 54.9042 187.265 55.0296 186.061 55.0296ZM198.493 31.3635V27.3752H202.406V31.3635H198.493ZM198.493 54.5781V34.7874H202.406V54.5781H198.493ZM212.387 55.0296C211.259 55.0296 210.368 54.8164 209.716 54.39C209.089 53.9385 208.637 53.3741 208.361 52.6969C208.111 51.9945 207.985 51.2546 207.985 50.477V38.0231H205.502V34.7874H208.06L208.775 29.2565H211.898V34.7874H215.473V38.0231H211.898V50.0255C211.898 50.6024 212.024 51.0414 212.274 51.3424C212.525 51.6434 212.939 51.7939 213.516 51.7939H215.473V54.4276C215.222 54.528 214.908 54.6158 214.532 54.691C214.181 54.7913 213.817 54.8666 213.441 54.9168C213.065 54.992 212.713 55.0296 212.387 55.0296ZM227.125 55.0296C225.093 55.0296 223.387 54.6659 222.008 53.9385C220.653 53.186 219.625 52.0447 218.922 50.5146C218.22 48.9845 217.869 47.0406 217.869 44.6827C217.869 42.2998 218.22 40.3559 218.922 38.8509C219.625 37.3208 220.666 36.192 222.045 35.4646C223.425 34.7121 225.143 34.3359 227.2 34.3359C229.081 34.3359 230.649 34.6996 231.903 35.427C233.182 36.1293 234.148 37.2079 234.8 38.6627C235.452 40.1176 235.778 41.9487 235.778 44.156V45.661H221.895C221.945 47.0657 222.158 48.2446 222.534 49.1977C222.911 50.1258 223.475 50.8156 224.227 51.2671C225.005 51.6935 225.983 51.9067 227.162 51.9067C227.89 51.9067 228.542 51.819 229.119 51.6434C229.696 51.4427 230.185 51.1668 230.586 50.8156C230.987 50.4394 231.301 50.0004 231.527 49.4987C231.752 48.972 231.865 48.3825 231.865 47.7304H235.703C235.703 48.9093 235.502 49.9502 235.101 50.8532C234.7 51.7562 234.11 52.5213 233.333 53.1484C232.58 53.7504 231.677 54.2144 230.624 54.5405C229.57 54.8666 228.404 55.0296 227.125 55.0296ZM221.97 42.8015H231.677C231.677 41.8232 231.564 41.008 231.339 40.3559C231.138 39.6786 230.837 39.1268 230.436 38.7004C230.034 38.274 229.558 37.973 229.006 37.7974C228.454 37.5967 227.827 37.4964 227.125 37.4964C226.071 37.4964 225.168 37.6845 224.416 38.0607C223.688 38.437 223.124 39.0265 222.722 39.8291C222.321 40.6067 222.07 41.5975 221.97 42.8015Z" fill="#EEF3F7"/>
</svg>
